%FSLAX34Y34*%
G04 Gerber Fmt 3.4, Leading zero omitted, Abs format*
G04 (created by PCBNEW (2014-02-23 BZR 4715)-product) date Sun 23 Feb 2014 08:29:28 PM CET*
%MOIN*%
G01*
G70*
G90*
G04 APERTURE LIST*
%ADD10C,0.005906*%
%ADD11C,0.002600*%
%ADD12C,0.006000*%
%ADD13C,0.007874*%
%ADD14C,0.003937*%
%ADD15R,0.055100X0.039300*%
%ADD16R,0.051100X0.059000*%
%ADD17R,0.059055X0.047244*%
%ADD18R,0.059055X0.059055*%
%ADD19R,0.009843X0.039370*%
%ADD20R,0.145669X0.055118*%
%ADD21R,0.059000X0.051100*%
%ADD22R,0.047244X0.059055*%
%ADD23R,0.043300X0.039300*%
%ADD24R,0.122000X0.019700*%
%ADD25R,0.098400X0.078700*%
%ADD26R,0.129900X0.078700*%
%ADD27C,0.035400*%
G04 APERTURE END LIST*
G54D10*
G54D11*
X21500Y-42587D02*
X21500Y-42767D01*
X21500Y-42767D02*
X21729Y-42767D01*
X21729Y-42587D02*
X21729Y-42767D01*
X21500Y-42587D02*
X21729Y-42587D01*
X20711Y-42957D02*
X20711Y-43137D01*
X20711Y-43137D02*
X20940Y-43137D01*
X20940Y-42957D02*
X20940Y-43137D01*
X20711Y-42957D02*
X20940Y-42957D01*
X20711Y-42217D02*
X20711Y-42397D01*
X20711Y-42397D02*
X20940Y-42397D01*
X20940Y-42217D02*
X20940Y-42397D01*
X20711Y-42217D02*
X20940Y-42217D01*
X21102Y-42481D02*
X21102Y-42873D01*
X21102Y-42873D02*
X21338Y-42873D01*
X21338Y-42481D02*
X21338Y-42873D01*
X21102Y-42481D02*
X21338Y-42481D01*
G54D12*
X21479Y-43236D02*
X20961Y-43236D01*
X20961Y-43236D02*
X20961Y-42118D01*
X20961Y-42118D02*
X21479Y-42118D01*
X21479Y-42118D02*
X21479Y-43236D01*
G54D13*
X39018Y-42991D02*
X39273Y-42991D01*
X39273Y-42991D02*
X39273Y-42440D01*
X39018Y-42440D02*
X39273Y-42440D01*
X39018Y-42991D02*
X39018Y-42440D01*
X38438Y-42991D02*
X38694Y-42991D01*
X38694Y-42991D02*
X38694Y-42440D01*
X38438Y-42440D02*
X38694Y-42440D01*
X38438Y-42991D02*
X38438Y-42440D01*
X38780Y-42912D02*
X38936Y-42912D01*
X38936Y-42912D02*
X38936Y-42520D01*
X38780Y-42520D02*
X38936Y-42520D01*
X38780Y-42912D02*
X38780Y-42520D01*
X38697Y-42466D02*
X39019Y-42466D01*
X38697Y-42966D02*
X39019Y-42966D01*
X38082Y-42329D02*
X39634Y-42329D01*
X39634Y-42329D02*
X39634Y-43103D01*
X39634Y-43103D02*
X38082Y-43103D01*
X38082Y-43103D02*
X38082Y-42329D01*
X40391Y-42008D02*
X40136Y-42008D01*
X40136Y-42008D02*
X40136Y-42559D01*
X40391Y-42559D02*
X40136Y-42559D01*
X40391Y-42008D02*
X40391Y-42559D01*
X40971Y-42008D02*
X40715Y-42008D01*
X40715Y-42008D02*
X40715Y-42559D01*
X40971Y-42559D02*
X40715Y-42559D01*
X40971Y-42008D02*
X40971Y-42559D01*
X40629Y-42087D02*
X40473Y-42087D01*
X40473Y-42087D02*
X40473Y-42479D01*
X40629Y-42479D02*
X40473Y-42479D01*
X40629Y-42087D02*
X40629Y-42479D01*
X40712Y-42533D02*
X40390Y-42533D01*
X40712Y-42033D02*
X40390Y-42033D01*
X41327Y-42670D02*
X39775Y-42670D01*
X39775Y-42670D02*
X39775Y-41896D01*
X39775Y-41896D02*
X41327Y-41896D01*
X41327Y-41896D02*
X41327Y-42670D01*
X40391Y-42874D02*
X40136Y-42874D01*
X40136Y-42874D02*
X40136Y-43425D01*
X40391Y-43425D02*
X40136Y-43425D01*
X40391Y-42874D02*
X40391Y-43425D01*
X40971Y-42874D02*
X40715Y-42874D01*
X40715Y-42874D02*
X40715Y-43425D01*
X40971Y-43425D02*
X40715Y-43425D01*
X40971Y-42874D02*
X40971Y-43425D01*
X40629Y-42953D02*
X40473Y-42953D01*
X40473Y-42953D02*
X40473Y-43345D01*
X40629Y-43345D02*
X40473Y-43345D01*
X40629Y-42953D02*
X40629Y-43345D01*
X40712Y-43399D02*
X40390Y-43399D01*
X40712Y-42899D02*
X40390Y-42899D01*
X41327Y-43536D02*
X39775Y-43536D01*
X39775Y-43536D02*
X39775Y-42762D01*
X39775Y-42762D02*
X41327Y-42762D01*
X41327Y-42762D02*
X41327Y-43536D01*
X21830Y-41574D02*
X20137Y-41574D01*
X20137Y-41574D02*
X20137Y-40551D01*
X20137Y-40551D02*
X21830Y-40551D01*
X21830Y-40551D02*
X21830Y-41574D01*
X21496Y-41318D02*
X20472Y-41318D01*
X20472Y-41318D02*
X20472Y-40807D01*
X20472Y-40807D02*
X21496Y-40807D01*
X21496Y-40807D02*
X21496Y-41318D01*
X19803Y-41181D02*
X19409Y-41181D01*
X19409Y-41181D02*
X19409Y-40944D01*
X19409Y-40944D02*
X19803Y-40944D01*
X22165Y-41181D02*
X22559Y-41181D01*
X22559Y-41181D02*
X22559Y-40944D01*
X22559Y-40944D02*
X22165Y-40944D01*
X19803Y-41791D02*
X19803Y-40334D01*
X19803Y-40334D02*
X22165Y-40334D01*
X22165Y-40334D02*
X22165Y-41791D01*
X22165Y-41791D02*
X19803Y-41791D01*
X21830Y-44881D02*
X20137Y-44881D01*
X20137Y-44881D02*
X20137Y-43858D01*
X20137Y-43858D02*
X21830Y-43858D01*
X21830Y-43858D02*
X21830Y-44881D01*
X21496Y-44625D02*
X20472Y-44625D01*
X20472Y-44625D02*
X20472Y-44114D01*
X20472Y-44114D02*
X21496Y-44114D01*
X21496Y-44114D02*
X21496Y-44625D01*
X19803Y-44488D02*
X19409Y-44488D01*
X19409Y-44488D02*
X19409Y-44251D01*
X19409Y-44251D02*
X19803Y-44251D01*
X22165Y-44488D02*
X22559Y-44488D01*
X22559Y-44488D02*
X22559Y-44251D01*
X22559Y-44251D02*
X22165Y-44251D01*
X19803Y-45098D02*
X19803Y-43641D01*
X19803Y-43641D02*
X22165Y-43641D01*
X22165Y-43641D02*
X22165Y-45098D01*
X22165Y-45098D02*
X19803Y-45098D01*
X16692Y-43700D02*
X18031Y-43700D01*
X16535Y-43543D02*
X16535Y-41811D01*
X16535Y-43543D02*
X16692Y-43700D01*
X18031Y-41811D02*
X18031Y-43700D01*
X16535Y-41811D02*
X18031Y-41811D01*
X16692Y-43346D02*
X16692Y-42165D01*
X16692Y-42165D02*
X17874Y-42165D01*
X17874Y-42165D02*
X17874Y-43346D01*
X17874Y-43346D02*
X16692Y-43346D01*
X16102Y-43503D02*
X16102Y-41929D01*
X16102Y-43503D02*
X15236Y-43503D01*
X15236Y-43503D02*
X15236Y-41929D01*
X15236Y-41929D02*
X16102Y-41929D01*
G54D14*
X42322Y-42037D02*
X41929Y-42037D01*
X42322Y-42529D02*
X41929Y-42529D01*
X41929Y-42529D02*
X41732Y-42529D01*
X41732Y-42037D02*
X41929Y-42037D01*
X42519Y-42529D02*
X42322Y-42529D01*
X42519Y-42037D02*
X42322Y-42037D01*
X42322Y-42529D02*
X42322Y-42037D01*
X41929Y-42037D02*
X41929Y-42529D01*
X41732Y-42529D02*
X41732Y-42421D01*
X41732Y-42145D02*
X41732Y-42037D01*
X42519Y-42037D02*
X42519Y-42145D01*
X42519Y-42529D02*
X42519Y-42421D01*
X42086Y-42322D02*
X42086Y-42244D01*
X42086Y-42244D02*
X42008Y-42244D01*
X42008Y-42322D02*
X42008Y-42244D01*
X42086Y-42322D02*
X42008Y-42322D01*
X41732Y-42420D02*
G75*
G03X41732Y-42146I0J137D01*
G74*
G01*
X42518Y-42146D02*
G75*
G03X42518Y-42420I0J-137D01*
G74*
G01*
X43513Y-42913D02*
X43513Y-42519D01*
X43021Y-42913D02*
X43021Y-42519D01*
X43021Y-42519D02*
X43021Y-42322D01*
X43513Y-42322D02*
X43513Y-42519D01*
X43021Y-43110D02*
X43021Y-42913D01*
X43513Y-43110D02*
X43513Y-42913D01*
X43021Y-42913D02*
X43513Y-42913D01*
X43513Y-42519D02*
X43021Y-42519D01*
X43021Y-42322D02*
X43129Y-42322D01*
X43405Y-42322D02*
X43513Y-42322D01*
X43513Y-43110D02*
X43405Y-43110D01*
X43021Y-43110D02*
X43129Y-43110D01*
X43228Y-42677D02*
X43306Y-42677D01*
X43306Y-42677D02*
X43306Y-42599D01*
X43228Y-42599D02*
X43306Y-42599D01*
X43228Y-42677D02*
X43228Y-42599D01*
X43130Y-42323D02*
G75*
G03X43404Y-42323I137J0D01*
G74*
G01*
X43404Y-43109D02*
G75*
G03X43130Y-43109I-137J0D01*
G74*
G01*
X42322Y-42903D02*
X41929Y-42903D01*
X42322Y-43395D02*
X41929Y-43395D01*
X41929Y-43395D02*
X41732Y-43395D01*
X41732Y-42903D02*
X41929Y-42903D01*
X42519Y-43395D02*
X42322Y-43395D01*
X42519Y-42903D02*
X42322Y-42903D01*
X42322Y-43395D02*
X42322Y-42903D01*
X41929Y-42903D02*
X41929Y-43395D01*
X41732Y-43395D02*
X41732Y-43287D01*
X41732Y-43011D02*
X41732Y-42903D01*
X42519Y-42903D02*
X42519Y-43011D01*
X42519Y-43395D02*
X42519Y-43287D01*
X42086Y-43188D02*
X42086Y-43110D01*
X42086Y-43110D02*
X42008Y-43110D01*
X42008Y-43188D02*
X42008Y-43110D01*
X42086Y-43188D02*
X42008Y-43188D01*
X41732Y-43286D02*
G75*
G03X41732Y-43012I0J137D01*
G74*
G01*
X42518Y-43012D02*
G75*
G03X42518Y-43286I0J-137D01*
G74*
G01*
G54D13*
X19530Y-43030D02*
X19785Y-43030D01*
X19785Y-43030D02*
X19785Y-42479D01*
X19530Y-42479D02*
X19785Y-42479D01*
X19530Y-43030D02*
X19530Y-42479D01*
X18950Y-43030D02*
X19206Y-43030D01*
X19206Y-43030D02*
X19206Y-42479D01*
X18950Y-42479D02*
X19206Y-42479D01*
X18950Y-43030D02*
X18950Y-42479D01*
X19292Y-42951D02*
X19448Y-42951D01*
X19448Y-42951D02*
X19448Y-42559D01*
X19292Y-42559D02*
X19448Y-42559D01*
X19292Y-42951D02*
X19292Y-42559D01*
X19209Y-42505D02*
X19531Y-42505D01*
X19209Y-43005D02*
X19531Y-43005D01*
X18594Y-42368D02*
X20146Y-42368D01*
X20146Y-42368D02*
X20146Y-43142D01*
X20146Y-43142D02*
X18594Y-43142D01*
X18594Y-43142D02*
X18594Y-42368D01*
X22913Y-44803D02*
X22913Y-43464D01*
X22913Y-43464D02*
X23622Y-43464D01*
X23622Y-43464D02*
X23622Y-44803D01*
X23622Y-44803D02*
X22913Y-44803D01*
X23437Y-43963D02*
X23437Y-43803D01*
X23437Y-43803D02*
X23097Y-43803D01*
X23097Y-43963D02*
X23097Y-43803D01*
X23437Y-43963D02*
X23097Y-43963D01*
X23437Y-44463D02*
X23437Y-44303D01*
X23437Y-44303D02*
X23097Y-44303D01*
X23097Y-44463D02*
X23097Y-44303D01*
X23437Y-44463D02*
X23097Y-44463D01*
X23407Y-44303D02*
X23407Y-43963D01*
X23127Y-43963D02*
X23127Y-44303D01*
X23622Y-40629D02*
X23622Y-41968D01*
X23622Y-41968D02*
X22913Y-41968D01*
X22913Y-41968D02*
X22913Y-40629D01*
X22913Y-40629D02*
X23622Y-40629D01*
X23097Y-41469D02*
X23097Y-41629D01*
X23097Y-41629D02*
X23437Y-41629D01*
X23437Y-41469D02*
X23437Y-41629D01*
X23097Y-41469D02*
X23437Y-41469D01*
X23097Y-40969D02*
X23097Y-41129D01*
X23097Y-41129D02*
X23437Y-41129D01*
X23437Y-40969D02*
X23437Y-41129D01*
X23097Y-40969D02*
X23437Y-40969D01*
X23127Y-41129D02*
X23127Y-41469D01*
X23407Y-41469D02*
X23407Y-41129D01*
X15078Y-40453D02*
X11102Y-40453D01*
X11102Y-40453D02*
X11102Y-44981D01*
X11102Y-44981D02*
X15078Y-44981D01*
X15078Y-44981D02*
X15078Y-40453D01*
%LPC*%
G54D15*
X20787Y-42303D03*
X20787Y-43051D03*
X21653Y-42677D03*
G54D16*
X38484Y-42716D03*
X39232Y-42716D03*
X40925Y-42283D03*
X40177Y-42283D03*
X40925Y-43149D03*
X40177Y-43149D03*
G54D17*
X22519Y-41062D03*
G54D18*
X19448Y-41062D03*
G54D17*
X22519Y-44370D03*
G54D18*
X19448Y-44370D03*
G54D19*
X16889Y-43346D03*
X17086Y-43346D03*
X17283Y-43346D03*
X17480Y-43346D03*
X17677Y-43346D03*
X17677Y-42165D03*
X17480Y-42165D03*
X17283Y-42165D03*
X17086Y-42165D03*
X16889Y-42165D03*
G54D20*
X17480Y-42755D03*
G54D21*
X15669Y-42342D03*
X15669Y-43090D03*
G54D22*
X42538Y-42283D03*
X41712Y-42283D03*
G54D17*
X43267Y-43129D03*
X43267Y-42303D03*
G54D22*
X42538Y-43149D03*
X41712Y-43149D03*
G54D16*
X18996Y-42755D03*
X19744Y-42755D03*
G54D23*
X23267Y-44467D03*
X23267Y-43799D03*
X23267Y-40965D03*
X23267Y-41633D03*
G54D24*
X14350Y-42087D03*
X14350Y-42402D03*
X14350Y-42717D03*
X14350Y-43032D03*
X14350Y-43347D03*
G54D25*
X11987Y-40965D03*
G54D26*
X14310Y-40965D03*
G54D25*
X11988Y-44470D03*
G54D26*
X14310Y-44469D03*
G54D27*
X13149Y-41851D03*
X13149Y-43583D03*
M02*
