%FSLAX34Y34*%
G04 Gerber Fmt 3.4, Leading zero omitted, Abs format*
G04 (created by PCBNEW (2014-02-23 BZR 4715)-product) date Sun 23 Feb 2014 08:29:28 PM CET*
%MOIN*%
G01*
G70*
G90*
G04 APERTURE LIST*
%ADD10C,0.005906*%
%ADD11R,0.040000X0.040000*%
%ADD12C,0.040000*%
%ADD13R,0.055100X0.039300*%
%ADD14R,0.051100X0.059000*%
%ADD15R,0.059055X0.047244*%
%ADD16R,0.059055X0.059055*%
%ADD17R,0.009843X0.039370*%
%ADD18R,0.145669X0.055118*%
%ADD19R,0.059000X0.051100*%
%ADD20R,0.047244X0.059055*%
%ADD21R,0.043300X0.039300*%
%ADD22R,0.122000X0.019700*%
%ADD23R,0.098400X0.078700*%
%ADD24R,0.129900X0.078700*%
%ADD25C,0.035400*%
%ADD26C,0.031496*%
%ADD27C,0.015748*%
%ADD28C,0.009843*%
G04 APERTURE END LIST*
G54D10*
G54D11*
X12297Y-42216D03*
G54D12*
X11797Y-42216D03*
X11797Y-42716D03*
X12297Y-43216D03*
X11797Y-43216D03*
G54D13*
X20787Y-42303D03*
X20787Y-43051D03*
X21653Y-42677D03*
G54D14*
X38484Y-42716D03*
X39232Y-42716D03*
X40925Y-42283D03*
X40177Y-42283D03*
X40925Y-43149D03*
X40177Y-43149D03*
G54D15*
X22519Y-41062D03*
G54D16*
X19448Y-41062D03*
G54D15*
X22519Y-44370D03*
G54D16*
X19448Y-44370D03*
G54D17*
X16889Y-43346D03*
X17086Y-43346D03*
X17283Y-43346D03*
X17480Y-43346D03*
X17677Y-43346D03*
X17677Y-42165D03*
X17480Y-42165D03*
X17283Y-42165D03*
X17086Y-42165D03*
X16889Y-42165D03*
G54D18*
X17480Y-42755D03*
G54D19*
X15669Y-42342D03*
X15669Y-43090D03*
G54D20*
X42538Y-42283D03*
X41712Y-42283D03*
G54D15*
X43267Y-43129D03*
X43267Y-42303D03*
G54D20*
X42538Y-43149D03*
X41712Y-43149D03*
G54D14*
X18996Y-42755D03*
X19744Y-42755D03*
G54D21*
X23267Y-44467D03*
X23267Y-43799D03*
X23267Y-40965D03*
X23267Y-41633D03*
G54D22*
X14350Y-42087D03*
X14350Y-42402D03*
X14350Y-42717D03*
X14350Y-43032D03*
X14350Y-43347D03*
G54D23*
X11987Y-40965D03*
G54D24*
X14310Y-40965D03*
G54D23*
X11988Y-44470D03*
G54D24*
X14310Y-44469D03*
G54D25*
X13149Y-41851D03*
X13149Y-43583D03*
G54D26*
X15669Y-40905D03*
X42538Y-43149D03*
X18858Y-44448D03*
X18464Y-41535D03*
X18425Y-43385D03*
X13267Y-43031D03*
X16417Y-43700D03*
X16574Y-41614D03*
X23267Y-43110D03*
X23267Y-42322D03*
X39232Y-42716D03*
G54D27*
X15669Y-40905D02*
X15669Y-42342D01*
X42538Y-42283D02*
X42538Y-43149D01*
X42538Y-43149D02*
X42559Y-43129D01*
X42559Y-43129D02*
X43425Y-43129D01*
G54D28*
X15669Y-42342D02*
X16240Y-42342D01*
X16240Y-42342D02*
X16417Y-42165D01*
X16417Y-42165D02*
X16889Y-42165D01*
G54D27*
X14350Y-42087D02*
X15413Y-42087D01*
X15413Y-42087D02*
X15669Y-42342D01*
G54D28*
X13661Y-41692D02*
X14173Y-41692D01*
X11797Y-41982D02*
X12125Y-41653D01*
X12125Y-41653D02*
X12716Y-41653D01*
X12716Y-41653D02*
X12952Y-41417D01*
X12952Y-41417D02*
X13385Y-41417D01*
X13385Y-41417D02*
X13661Y-41692D01*
X11797Y-42216D02*
X11797Y-41982D01*
X14350Y-41870D02*
X14350Y-42087D01*
X14173Y-41692D02*
X14350Y-41870D01*
X17480Y-42165D02*
X17480Y-41732D01*
X18937Y-44370D02*
X19448Y-44370D01*
X18858Y-44448D02*
X18937Y-44370D01*
X17677Y-41535D02*
X18464Y-41535D01*
X17480Y-41732D02*
X17677Y-41535D01*
X11797Y-42716D02*
X12952Y-42716D01*
X18996Y-43287D02*
X18996Y-42755D01*
X18937Y-43346D02*
X18996Y-43287D01*
X18464Y-43346D02*
X18937Y-43346D01*
X18425Y-43385D02*
X18464Y-43346D01*
X12952Y-42716D02*
X13267Y-43031D01*
X17677Y-42165D02*
X18897Y-42165D01*
X18996Y-42263D02*
X18996Y-42755D01*
X18897Y-42165D02*
X18996Y-42263D01*
X16889Y-43582D02*
X16889Y-43346D01*
X16692Y-43779D02*
X16889Y-43582D01*
X16496Y-43779D02*
X16692Y-43779D01*
X16417Y-43700D02*
X16496Y-43779D01*
X17440Y-40984D02*
X19370Y-40984D01*
X17440Y-40984D02*
X17086Y-41338D01*
X17086Y-41614D02*
X17086Y-41338D01*
X19370Y-40984D02*
X19448Y-41062D01*
X16574Y-41614D02*
X17086Y-41614D01*
X17086Y-41614D02*
X17086Y-42165D01*
G54D27*
X23267Y-41633D02*
X23267Y-42322D01*
X15669Y-43090D02*
X15669Y-43503D01*
X17283Y-44133D02*
X17677Y-43740D01*
X16299Y-44133D02*
X17283Y-44133D01*
X15669Y-43503D02*
X16299Y-44133D01*
X14350Y-43347D02*
X15412Y-43347D01*
X15412Y-43347D02*
X15669Y-43090D01*
X20787Y-43051D02*
X20787Y-43740D01*
X20787Y-43740D02*
X20787Y-43740D01*
G54D28*
X17283Y-42755D02*
X17362Y-42834D01*
X17677Y-42952D02*
X17677Y-43346D01*
X17559Y-42834D02*
X17677Y-42952D01*
X17362Y-42834D02*
X17559Y-42834D01*
X11797Y-43216D02*
X11797Y-43372D01*
X14350Y-43681D02*
X14350Y-43347D01*
X14251Y-43779D02*
X14350Y-43681D01*
X13622Y-43779D02*
X14251Y-43779D01*
X13385Y-44015D02*
X13622Y-43779D01*
X12952Y-44015D02*
X13385Y-44015D01*
X12755Y-43818D02*
X12952Y-44015D01*
X12244Y-43818D02*
X12755Y-43818D01*
X11797Y-43372D02*
X12244Y-43818D01*
G54D27*
X17677Y-43740D02*
X20787Y-43740D01*
X20787Y-43740D02*
X23127Y-43740D01*
X23127Y-43740D02*
X23264Y-43877D01*
X23264Y-43877D02*
X23264Y-43113D01*
X23264Y-43113D02*
X23267Y-43110D01*
X23267Y-42322D02*
X23270Y-42319D01*
G54D28*
X17677Y-43346D02*
X17677Y-43740D01*
G54D27*
X14350Y-43347D02*
X14882Y-43347D01*
G54D28*
X38740Y-41811D02*
X43149Y-41811D01*
X38740Y-41811D02*
X38484Y-42066D01*
X38484Y-42716D02*
X38484Y-42066D01*
X43267Y-41929D02*
X43267Y-42303D01*
X43149Y-41811D02*
X43267Y-41929D01*
G54D27*
X41712Y-42283D02*
X40925Y-42283D01*
X40925Y-43149D02*
X41712Y-43149D01*
G54D28*
X19744Y-42755D02*
X19744Y-42342D01*
X19783Y-42303D02*
X20787Y-42303D01*
X19744Y-42342D02*
X19783Y-42303D01*
G54D27*
X39212Y-43385D02*
X39232Y-43366D01*
X38031Y-43385D02*
X37322Y-42677D01*
X21653Y-42677D02*
X37322Y-42677D01*
X39212Y-43385D02*
X38031Y-43385D01*
X39232Y-43366D02*
X39232Y-42716D01*
X39232Y-42716D02*
X39665Y-43149D01*
X39665Y-43149D02*
X40177Y-43149D01*
X40177Y-42283D02*
X40177Y-43149D01*
X23167Y-44370D02*
X23264Y-44467D01*
X22519Y-44370D02*
X23167Y-44370D01*
X22519Y-41062D02*
X23169Y-41062D01*
X23169Y-41062D02*
X23267Y-40965D01*
G54D28*
X23169Y-41062D02*
X23267Y-40965D01*
G54D27*
X23173Y-40984D02*
X23270Y-40887D01*
M02*
