%FSLAX34Y34*%
G04 Gerber Fmt 3.4, Leading zero omitted, Abs format*
G04 (created by PCBNEW (2014-05-06 BZR 4854)-product) date Tue 06 May 2014 08:28:12 PM CEST*
%MOIN*%
G01*
G70*
G90*
G04 APERTURE LIST*
%ADD10C,0.005906*%
%ADD11C,0.007874*%
%ADD12C,0.003937*%
%ADD13R,0.051100X0.059000*%
%ADD14R,0.059055X0.047244*%
%ADD15R,0.059055X0.059055*%
%ADD16R,0.009843X0.039370*%
%ADD17R,0.145669X0.055118*%
%ADD18R,0.059000X0.051100*%
%ADD19R,0.047244X0.059055*%
%ADD20R,0.043300X0.039300*%
%ADD21R,0.122000X0.019700*%
%ADD22R,0.098400X0.078700*%
%ADD23R,0.129900X0.078700*%
%ADD24C,0.035400*%
%ADD25R,0.053150X0.039370*%
%ADD26R,0.039300X0.043300*%
G04 APERTURE END LIST*
G54D10*
G54D11*
X39018Y-42991D02*
X39273Y-42991D01*
X39273Y-42991D02*
X39273Y-42440D01*
X39018Y-42440D02*
X39273Y-42440D01*
X39018Y-42991D02*
X39018Y-42440D01*
X38438Y-42991D02*
X38694Y-42991D01*
X38694Y-42991D02*
X38694Y-42440D01*
X38438Y-42440D02*
X38694Y-42440D01*
X38438Y-42991D02*
X38438Y-42440D01*
X38780Y-42912D02*
X38936Y-42912D01*
X38936Y-42912D02*
X38936Y-42520D01*
X38780Y-42520D02*
X38936Y-42520D01*
X38780Y-42912D02*
X38780Y-42520D01*
X38697Y-42466D02*
X39019Y-42466D01*
X38697Y-42966D02*
X39019Y-42966D01*
X38082Y-42329D02*
X39634Y-42329D01*
X39634Y-42329D02*
X39634Y-43103D01*
X39634Y-43103D02*
X38082Y-43103D01*
X38082Y-43103D02*
X38082Y-42329D01*
X40391Y-42008D02*
X40136Y-42008D01*
X40136Y-42008D02*
X40136Y-42559D01*
X40391Y-42559D02*
X40136Y-42559D01*
X40391Y-42008D02*
X40391Y-42559D01*
X40971Y-42008D02*
X40715Y-42008D01*
X40715Y-42008D02*
X40715Y-42559D01*
X40971Y-42559D02*
X40715Y-42559D01*
X40971Y-42008D02*
X40971Y-42559D01*
X40629Y-42087D02*
X40473Y-42087D01*
X40473Y-42087D02*
X40473Y-42479D01*
X40629Y-42479D02*
X40473Y-42479D01*
X40629Y-42087D02*
X40629Y-42479D01*
X40712Y-42533D02*
X40390Y-42533D01*
X40712Y-42033D02*
X40390Y-42033D01*
X41327Y-42670D02*
X39775Y-42670D01*
X39775Y-42670D02*
X39775Y-41896D01*
X39775Y-41896D02*
X41327Y-41896D01*
X41327Y-41896D02*
X41327Y-42670D01*
X40391Y-42874D02*
X40136Y-42874D01*
X40136Y-42874D02*
X40136Y-43425D01*
X40391Y-43425D02*
X40136Y-43425D01*
X40391Y-42874D02*
X40391Y-43425D01*
X40971Y-42874D02*
X40715Y-42874D01*
X40715Y-42874D02*
X40715Y-43425D01*
X40971Y-43425D02*
X40715Y-43425D01*
X40971Y-42874D02*
X40971Y-43425D01*
X40629Y-42953D02*
X40473Y-42953D01*
X40473Y-42953D02*
X40473Y-43345D01*
X40629Y-43345D02*
X40473Y-43345D01*
X40629Y-42953D02*
X40629Y-43345D01*
X40712Y-43399D02*
X40390Y-43399D01*
X40712Y-42899D02*
X40390Y-42899D01*
X41327Y-43536D02*
X39775Y-43536D01*
X39775Y-43536D02*
X39775Y-42762D01*
X39775Y-42762D02*
X41327Y-42762D01*
X41327Y-42762D02*
X41327Y-43536D01*
X21830Y-41574D02*
X20137Y-41574D01*
X20137Y-41574D02*
X20137Y-40551D01*
X20137Y-40551D02*
X21830Y-40551D01*
X21830Y-40551D02*
X21830Y-41574D01*
X21496Y-41318D02*
X20472Y-41318D01*
X20472Y-41318D02*
X20472Y-40807D01*
X20472Y-40807D02*
X21496Y-40807D01*
X21496Y-40807D02*
X21496Y-41318D01*
X19803Y-41181D02*
X19409Y-41181D01*
X19409Y-41181D02*
X19409Y-40944D01*
X19409Y-40944D02*
X19803Y-40944D01*
X22165Y-41181D02*
X22559Y-41181D01*
X22559Y-41181D02*
X22559Y-40944D01*
X22559Y-40944D02*
X22165Y-40944D01*
X19803Y-41791D02*
X19803Y-40334D01*
X19803Y-40334D02*
X22165Y-40334D01*
X22165Y-40334D02*
X22165Y-41791D01*
X22165Y-41791D02*
X19803Y-41791D01*
X21830Y-44881D02*
X20137Y-44881D01*
X20137Y-44881D02*
X20137Y-43858D01*
X20137Y-43858D02*
X21830Y-43858D01*
X21830Y-43858D02*
X21830Y-44881D01*
X21496Y-44625D02*
X20472Y-44625D01*
X20472Y-44625D02*
X20472Y-44114D01*
X20472Y-44114D02*
X21496Y-44114D01*
X21496Y-44114D02*
X21496Y-44625D01*
X19803Y-44488D02*
X19409Y-44488D01*
X19409Y-44488D02*
X19409Y-44251D01*
X19409Y-44251D02*
X19803Y-44251D01*
X22165Y-44488D02*
X22559Y-44488D01*
X22559Y-44488D02*
X22559Y-44251D01*
X22559Y-44251D02*
X22165Y-44251D01*
X19803Y-45098D02*
X19803Y-43641D01*
X19803Y-43641D02*
X22165Y-43641D01*
X22165Y-43641D02*
X22165Y-45098D01*
X22165Y-45098D02*
X19803Y-45098D01*
X16692Y-43700D02*
X18031Y-43700D01*
X16535Y-43543D02*
X16535Y-41811D01*
X16535Y-43543D02*
X16692Y-43700D01*
X18031Y-41811D02*
X18031Y-43700D01*
X16535Y-41811D02*
X18031Y-41811D01*
X16692Y-43346D02*
X16692Y-42165D01*
X16692Y-42165D02*
X17874Y-42165D01*
X17874Y-42165D02*
X17874Y-43346D01*
X17874Y-43346D02*
X16692Y-43346D01*
X16102Y-43503D02*
X16102Y-41929D01*
X16102Y-43503D02*
X15236Y-43503D01*
X15236Y-43503D02*
X15236Y-41929D01*
X15236Y-41929D02*
X16102Y-41929D01*
G54D12*
X42322Y-42037D02*
X41929Y-42037D01*
X42322Y-42529D02*
X41929Y-42529D01*
X41929Y-42529D02*
X41732Y-42529D01*
X41732Y-42037D02*
X41929Y-42037D01*
X42519Y-42529D02*
X42322Y-42529D01*
X42519Y-42037D02*
X42322Y-42037D01*
X42322Y-42529D02*
X42322Y-42037D01*
X41929Y-42037D02*
X41929Y-42529D01*
X41732Y-42529D02*
X41732Y-42421D01*
X41732Y-42145D02*
X41732Y-42037D01*
X42519Y-42037D02*
X42519Y-42145D01*
X42519Y-42529D02*
X42519Y-42421D01*
X42086Y-42322D02*
X42086Y-42244D01*
X42086Y-42244D02*
X42008Y-42244D01*
X42008Y-42322D02*
X42008Y-42244D01*
X42086Y-42322D02*
X42008Y-42322D01*
X41732Y-42420D02*
G75*
G03X41732Y-42146I0J137D01*
G74*
G01*
X42518Y-42146D02*
G75*
G03X42518Y-42420I0J-137D01*
G74*
G01*
X43513Y-42913D02*
X43513Y-42519D01*
X43021Y-42913D02*
X43021Y-42519D01*
X43021Y-42519D02*
X43021Y-42322D01*
X43513Y-42322D02*
X43513Y-42519D01*
X43021Y-43110D02*
X43021Y-42913D01*
X43513Y-43110D02*
X43513Y-42913D01*
X43021Y-42913D02*
X43513Y-42913D01*
X43513Y-42519D02*
X43021Y-42519D01*
X43021Y-42322D02*
X43129Y-42322D01*
X43405Y-42322D02*
X43513Y-42322D01*
X43513Y-43110D02*
X43405Y-43110D01*
X43021Y-43110D02*
X43129Y-43110D01*
X43228Y-42677D02*
X43306Y-42677D01*
X43306Y-42677D02*
X43306Y-42599D01*
X43228Y-42599D02*
X43306Y-42599D01*
X43228Y-42677D02*
X43228Y-42599D01*
X43130Y-42323D02*
G75*
G03X43404Y-42323I137J0D01*
G74*
G01*
X43404Y-43109D02*
G75*
G03X43130Y-43109I-137J0D01*
G74*
G01*
X42322Y-42903D02*
X41929Y-42903D01*
X42322Y-43395D02*
X41929Y-43395D01*
X41929Y-43395D02*
X41732Y-43395D01*
X41732Y-42903D02*
X41929Y-42903D01*
X42519Y-43395D02*
X42322Y-43395D01*
X42519Y-42903D02*
X42322Y-42903D01*
X42322Y-43395D02*
X42322Y-42903D01*
X41929Y-42903D02*
X41929Y-43395D01*
X41732Y-43395D02*
X41732Y-43287D01*
X41732Y-43011D02*
X41732Y-42903D01*
X42519Y-42903D02*
X42519Y-43011D01*
X42519Y-43395D02*
X42519Y-43287D01*
X42086Y-43188D02*
X42086Y-43110D01*
X42086Y-43110D02*
X42008Y-43110D01*
X42008Y-43188D02*
X42008Y-43110D01*
X42086Y-43188D02*
X42008Y-43188D01*
X41732Y-43286D02*
G75*
G03X41732Y-43012I0J137D01*
G74*
G01*
X42518Y-43012D02*
G75*
G03X42518Y-43286I0J-137D01*
G74*
G01*
G54D11*
X22913Y-44803D02*
X22913Y-43464D01*
X22913Y-43464D02*
X23622Y-43464D01*
X23622Y-43464D02*
X23622Y-44803D01*
X23622Y-44803D02*
X22913Y-44803D01*
X23437Y-43963D02*
X23437Y-43803D01*
X23437Y-43803D02*
X23097Y-43803D01*
X23097Y-43963D02*
X23097Y-43803D01*
X23437Y-43963D02*
X23097Y-43963D01*
X23437Y-44463D02*
X23437Y-44303D01*
X23437Y-44303D02*
X23097Y-44303D01*
X23097Y-44463D02*
X23097Y-44303D01*
X23437Y-44463D02*
X23097Y-44463D01*
X23407Y-44303D02*
X23407Y-43963D01*
X23127Y-43963D02*
X23127Y-44303D01*
X23622Y-40629D02*
X23622Y-41968D01*
X23622Y-41968D02*
X22913Y-41968D01*
X22913Y-41968D02*
X22913Y-40629D01*
X22913Y-40629D02*
X23622Y-40629D01*
X23097Y-41469D02*
X23097Y-41629D01*
X23097Y-41629D02*
X23437Y-41629D01*
X23437Y-41469D02*
X23437Y-41629D01*
X23097Y-41469D02*
X23437Y-41469D01*
X23097Y-40969D02*
X23097Y-41129D01*
X23097Y-41129D02*
X23437Y-41129D01*
X23437Y-40969D02*
X23437Y-41129D01*
X23097Y-40969D02*
X23437Y-40969D01*
X23127Y-41129D02*
X23127Y-41469D01*
X23407Y-41469D02*
X23407Y-41129D01*
X15078Y-40452D02*
X15078Y-44980D01*
X10826Y-44980D02*
X10826Y-40452D01*
X10826Y-44980D02*
X15078Y-44980D01*
X15078Y-40452D02*
X10826Y-40452D01*
X22086Y-43425D02*
X20354Y-43425D01*
X20354Y-43425D02*
X20354Y-41929D01*
X20354Y-41929D02*
X22086Y-41929D01*
X22086Y-41929D02*
X22086Y-43425D01*
X21500Y-42587D02*
X21500Y-42767D01*
X21500Y-42767D02*
X21729Y-42767D01*
X21729Y-42587D02*
X21729Y-42767D01*
X21500Y-42587D02*
X21729Y-42587D01*
X20711Y-42957D02*
X20711Y-43137D01*
X20711Y-43137D02*
X20940Y-43137D01*
X20940Y-42957D02*
X20940Y-43137D01*
X20711Y-42957D02*
X20940Y-42957D01*
X20711Y-42217D02*
X20711Y-42397D01*
X20711Y-42397D02*
X20940Y-42397D01*
X20940Y-42217D02*
X20940Y-42397D01*
X20711Y-42217D02*
X20940Y-42217D01*
X21102Y-42481D02*
X21102Y-42873D01*
X21102Y-42873D02*
X21338Y-42873D01*
X21338Y-42481D02*
X21338Y-42873D01*
X21102Y-42481D02*
X21338Y-42481D01*
X21479Y-43236D02*
X20961Y-43236D01*
X20961Y-43236D02*
X20961Y-42118D01*
X20961Y-42118D02*
X21479Y-42118D01*
X21479Y-42118D02*
X21479Y-43236D01*
X20118Y-43464D02*
X18779Y-43464D01*
X18779Y-43464D02*
X18779Y-42755D01*
X18779Y-42755D02*
X20118Y-42755D01*
X20118Y-42755D02*
X20118Y-43464D01*
X19278Y-42940D02*
X19118Y-42940D01*
X19118Y-42940D02*
X19118Y-43280D01*
X19278Y-43280D02*
X19118Y-43280D01*
X19278Y-42940D02*
X19278Y-43280D01*
X19778Y-42940D02*
X19618Y-42940D01*
X19618Y-42940D02*
X19618Y-43280D01*
X19778Y-43280D02*
X19618Y-43280D01*
X19778Y-42940D02*
X19778Y-43280D01*
X19618Y-42970D02*
X19278Y-42970D01*
X19278Y-43250D02*
X19618Y-43250D01*
X18779Y-41929D02*
X20118Y-41929D01*
X20118Y-41929D02*
X20118Y-42637D01*
X20118Y-42637D02*
X18779Y-42637D01*
X18779Y-42637D02*
X18779Y-41929D01*
X19618Y-42453D02*
X19778Y-42453D01*
X19778Y-42453D02*
X19778Y-42113D01*
X19618Y-42113D02*
X19778Y-42113D01*
X19618Y-42453D02*
X19618Y-42113D01*
X19118Y-42453D02*
X19278Y-42453D01*
X19278Y-42453D02*
X19278Y-42113D01*
X19118Y-42113D02*
X19278Y-42113D01*
X19118Y-42453D02*
X19118Y-42113D01*
X19278Y-42423D02*
X19618Y-42423D01*
X19618Y-42143D02*
X19278Y-42143D01*
X15603Y-41715D02*
X15584Y-41734D01*
X15528Y-41752D01*
X15491Y-41752D01*
X15434Y-41734D01*
X15397Y-41696D01*
X15378Y-41659D01*
X15359Y-41584D01*
X15359Y-41527D01*
X15378Y-41452D01*
X15397Y-41415D01*
X15434Y-41377D01*
X15491Y-41359D01*
X15528Y-41359D01*
X15584Y-41377D01*
X15603Y-41396D01*
X15978Y-41752D02*
X15753Y-41752D01*
X15866Y-41752D02*
X15866Y-41359D01*
X15828Y-41415D01*
X15791Y-41452D01*
X15753Y-41471D01*
X24028Y-44311D02*
X23897Y-44124D01*
X23803Y-44311D02*
X23803Y-43918D01*
X23953Y-43918D01*
X23991Y-43937D01*
X24010Y-43955D01*
X24028Y-43993D01*
X24028Y-44049D01*
X24010Y-44086D01*
X23991Y-44105D01*
X23953Y-44124D01*
X23803Y-44124D01*
X24253Y-44086D02*
X24216Y-44068D01*
X24197Y-44049D01*
X24178Y-44011D01*
X24178Y-43993D01*
X24197Y-43955D01*
X24216Y-43937D01*
X24253Y-43918D01*
X24328Y-43918D01*
X24366Y-43937D01*
X24385Y-43955D01*
X24403Y-43993D01*
X24403Y-44011D01*
X24385Y-44049D01*
X24366Y-44068D01*
X24328Y-44086D01*
X24253Y-44086D01*
X24216Y-44105D01*
X24197Y-44124D01*
X24178Y-44161D01*
X24178Y-44236D01*
X24197Y-44274D01*
X24216Y-44293D01*
X24253Y-44311D01*
X24328Y-44311D01*
X24366Y-44293D01*
X24385Y-44274D01*
X24403Y-44236D01*
X24403Y-44161D01*
X24385Y-44124D01*
X24366Y-44105D01*
X24328Y-44086D01*
X24028Y-41477D02*
X23897Y-41289D01*
X23803Y-41477D02*
X23803Y-41083D01*
X23953Y-41083D01*
X23991Y-41102D01*
X24010Y-41121D01*
X24028Y-41158D01*
X24028Y-41214D01*
X24010Y-41252D01*
X23991Y-41271D01*
X23953Y-41289D01*
X23803Y-41289D01*
X24216Y-41477D02*
X24291Y-41477D01*
X24328Y-41458D01*
X24347Y-41439D01*
X24385Y-41383D01*
X24403Y-41308D01*
X24403Y-41158D01*
X24385Y-41121D01*
X24366Y-41102D01*
X24328Y-41083D01*
X24253Y-41083D01*
X24216Y-41102D01*
X24197Y-41121D01*
X24178Y-41158D01*
X24178Y-41252D01*
X24197Y-41289D01*
X24216Y-41308D01*
X24253Y-41327D01*
X24328Y-41327D01*
X24366Y-41308D01*
X24385Y-41289D01*
X24403Y-41252D01*
X22600Y-42892D02*
X22562Y-42874D01*
X22525Y-42836D01*
X22469Y-42780D01*
X22431Y-42761D01*
X22394Y-42761D01*
X22412Y-42855D02*
X22375Y-42836D01*
X22337Y-42799D01*
X22319Y-42724D01*
X22319Y-42592D01*
X22337Y-42517D01*
X22375Y-42480D01*
X22412Y-42461D01*
X22487Y-42461D01*
X22525Y-42480D01*
X22562Y-42517D01*
X22581Y-42592D01*
X22581Y-42724D01*
X22562Y-42799D01*
X22525Y-42836D01*
X22487Y-42855D01*
X22412Y-42855D01*
X22956Y-42855D02*
X22731Y-42855D01*
X22844Y-42855D02*
X22844Y-42461D01*
X22806Y-42517D01*
X22769Y-42555D01*
X22731Y-42574D01*
X18997Y-43930D02*
X18885Y-43771D01*
X18806Y-43930D02*
X18806Y-43596D01*
X18933Y-43596D01*
X18965Y-43612D01*
X18981Y-43628D01*
X18997Y-43660D01*
X18997Y-43707D01*
X18981Y-43739D01*
X18965Y-43755D01*
X18933Y-43771D01*
X18806Y-43771D01*
X19316Y-43930D02*
X19124Y-43930D01*
X19220Y-43930D02*
X19220Y-43596D01*
X19188Y-43644D01*
X19156Y-43675D01*
X19124Y-43691D01*
X19523Y-43596D02*
X19555Y-43596D01*
X19587Y-43612D01*
X19603Y-43628D01*
X19618Y-43660D01*
X19634Y-43723D01*
X19634Y-43803D01*
X19618Y-43867D01*
X19603Y-43899D01*
X19587Y-43914D01*
X19555Y-43930D01*
X19523Y-43930D01*
X19491Y-43914D01*
X19475Y-43899D01*
X19459Y-43867D01*
X19443Y-43803D01*
X19443Y-43723D01*
X19459Y-43660D01*
X19475Y-43628D01*
X19491Y-43612D01*
X19523Y-43596D01*
X18999Y-41804D02*
X18887Y-41645D01*
X18808Y-41804D02*
X18808Y-41470D01*
X18935Y-41470D01*
X18967Y-41486D01*
X18983Y-41502D01*
X18999Y-41534D01*
X18999Y-41581D01*
X18983Y-41613D01*
X18967Y-41629D01*
X18935Y-41645D01*
X18808Y-41645D01*
X19110Y-41470D02*
X19333Y-41470D01*
X19190Y-41804D01*
%LPC*%
G54D13*
X38484Y-42716D03*
X39232Y-42716D03*
X40925Y-42283D03*
X40177Y-42283D03*
X40925Y-43149D03*
X40177Y-43149D03*
G54D14*
X22519Y-41062D03*
G54D15*
X19448Y-41062D03*
G54D14*
X22519Y-44370D03*
G54D15*
X19448Y-44370D03*
G54D16*
X16889Y-43346D03*
X17086Y-43346D03*
X17283Y-43346D03*
X17480Y-43346D03*
X17677Y-43346D03*
X17677Y-42165D03*
X17480Y-42165D03*
X17283Y-42165D03*
X17086Y-42165D03*
X16889Y-42165D03*
G54D17*
X17480Y-42755D03*
G54D18*
X15669Y-42342D03*
X15669Y-43090D03*
G54D19*
X42538Y-42283D03*
X41712Y-42283D03*
G54D14*
X43267Y-43129D03*
X43267Y-42303D03*
G54D19*
X42538Y-43149D03*
X41712Y-43149D03*
G54D20*
X23267Y-44467D03*
X23267Y-43799D03*
X23267Y-40965D03*
X23267Y-41633D03*
G54D21*
X14350Y-42087D03*
X14350Y-42402D03*
X14350Y-42717D03*
X14350Y-43032D03*
X14350Y-43347D03*
G54D22*
X11987Y-40965D03*
G54D23*
X14310Y-40965D03*
G54D22*
X11988Y-44470D03*
G54D23*
X14310Y-44469D03*
G54D24*
X13149Y-41851D03*
X13149Y-43583D03*
G54D25*
X20787Y-42303D03*
X20787Y-43051D03*
X21653Y-42677D03*
G54D26*
X19782Y-43110D03*
X19114Y-43110D03*
X19114Y-42283D03*
X19782Y-42283D03*
M02*
