%FSLAX34Y34*%
G04 Gerber Fmt 3.4, Leading zero omitted, Abs format*
G04 (created by PCBNEW (2014-03-16 BZR 4752)-product) date Sun 16 Mar 2014 11:51:38 PM CET*
%MOIN*%
G01*
G70*
G90*
G04 APERTURE LIST*
%ADD10C,0.005906*%
%ADD11R,0.040000X0.040000*%
%ADD12C,0.040000*%
%ADD13R,0.051100X0.059000*%
%ADD14R,0.059055X0.047244*%
%ADD15R,0.047244X0.059055*%
%ADD16C,0.035400*%
%ADD17C,0.031496*%
%ADD18C,0.015748*%
%ADD19C,0.009843*%
G04 APERTURE END LIST*
G54D10*
G54D11*
X12297Y-42216D03*
G54D12*
X11797Y-42216D03*
X12297Y-42716D03*
X11797Y-42716D03*
X12297Y-43216D03*
X11797Y-43216D03*
G54D13*
X40925Y-43149D03*
X40177Y-43149D03*
X38484Y-42716D03*
X39232Y-42716D03*
X40925Y-42283D03*
X40177Y-42283D03*
G54D14*
X43267Y-43129D03*
X43267Y-42303D03*
G54D15*
X42538Y-42283D03*
X41712Y-42283D03*
X42538Y-43149D03*
X41712Y-43149D03*
G54D16*
X13149Y-41851D03*
X13149Y-43583D03*
G54D17*
X42538Y-43149D03*
X15669Y-40905D03*
X18464Y-41535D03*
X18858Y-44448D03*
X13267Y-43031D03*
X18307Y-43385D03*
X16889Y-43976D03*
X16338Y-41850D03*
X23267Y-42322D03*
X23267Y-43110D03*
X39232Y-42716D03*
G54D18*
X42559Y-43129D02*
X43425Y-43129D01*
X42538Y-43149D02*
X42559Y-43129D01*
X42538Y-42283D02*
X42538Y-43149D01*
G54D19*
X38110Y-43464D02*
X38267Y-43622D01*
X38267Y-43622D02*
X42519Y-43622D01*
G54D18*
X15669Y-40905D02*
X23425Y-40905D01*
X23425Y-40905D02*
X25196Y-42677D01*
X25196Y-42677D02*
X37322Y-42677D01*
G54D19*
X42538Y-43602D02*
X42519Y-43622D01*
X42538Y-43149D02*
X42538Y-43602D01*
G54D18*
X37322Y-42677D02*
X38110Y-43464D01*
G54D19*
X18464Y-41535D02*
X18858Y-41929D01*
X18858Y-41929D02*
X18858Y-44448D01*
X12297Y-41679D02*
X12913Y-41062D01*
X12913Y-41062D02*
X14921Y-41062D01*
X14921Y-41062D02*
X15236Y-41377D01*
X15236Y-41377D02*
X18307Y-41377D01*
X18307Y-41377D02*
X18464Y-41535D01*
X12297Y-42216D02*
X12297Y-41679D01*
X13267Y-43031D02*
X13307Y-42992D01*
X13307Y-42992D02*
X18031Y-42992D01*
X18031Y-42992D02*
X18307Y-43385D01*
X16614Y-44251D02*
X16889Y-43976D01*
X12297Y-43714D02*
X12297Y-43216D01*
X12834Y-44251D02*
X15866Y-44251D01*
X12297Y-43714D02*
X12834Y-44251D01*
X15866Y-44251D02*
X16614Y-44251D01*
X13937Y-41889D02*
X16299Y-41889D01*
X16299Y-41889D02*
X16338Y-41850D01*
X13110Y-42716D02*
X13937Y-41889D01*
X12297Y-42716D02*
X13110Y-42716D01*
G54D18*
X23267Y-43110D02*
X23267Y-42322D01*
G54D19*
X43149Y-41811D02*
X43267Y-41929D01*
X43267Y-41929D02*
X43267Y-42303D01*
X38484Y-42716D02*
X38484Y-42066D01*
X38484Y-42066D02*
X38740Y-41811D01*
X38740Y-41811D02*
X43149Y-41811D01*
G54D18*
X40925Y-42283D02*
X41712Y-42283D01*
X40925Y-43149D02*
X41712Y-43149D01*
X40177Y-42283D02*
X40177Y-43149D01*
X39665Y-43149D02*
X40177Y-43149D01*
X39232Y-42716D02*
X39665Y-43149D01*
M02*
