%FSLAX34Y34*%
G04 Gerber Fmt 3.4, Leading zero omitted, Abs format*
G04 (created by PCBNEW (2014-03-16 BZR 4752)-product) date Sun 16 Mar 2014 11:51:38 PM CET*
%MOIN*%
G01*
G70*
G90*
G04 APERTURE LIST*
%ADD10C,0.005906*%
%ADD11R,0.040000X0.040000*%
%ADD12C,0.040000*%
%ADD13R,0.051100X0.059000*%
%ADD14R,0.059055X0.047244*%
%ADD15R,0.059055X0.059055*%
%ADD16R,0.009843X0.039370*%
%ADD17R,0.145669X0.055118*%
%ADD18R,0.059000X0.051100*%
%ADD19R,0.047244X0.059055*%
%ADD20R,0.043300X0.039300*%
%ADD21R,0.122000X0.019700*%
%ADD22R,0.098400X0.078700*%
%ADD23R,0.129900X0.078700*%
%ADD24C,0.035400*%
%ADD25R,0.055118X0.039370*%
%ADD26C,0.031496*%
%ADD27C,0.009843*%
%ADD28C,0.015748*%
%ADD29C,0.007874*%
G04 APERTURE END LIST*
G54D10*
G54D11*
X12297Y-42216D03*
G54D12*
X11797Y-42216D03*
X11797Y-42716D03*
X12297Y-43216D03*
X11797Y-43216D03*
G54D13*
X38484Y-42716D03*
X39232Y-42716D03*
X40925Y-42283D03*
X40177Y-42283D03*
X40925Y-43149D03*
X40177Y-43149D03*
G54D14*
X22519Y-41062D03*
G54D15*
X19448Y-41062D03*
G54D14*
X22519Y-44370D03*
G54D15*
X19448Y-44370D03*
G54D16*
X16889Y-43346D03*
X17086Y-43346D03*
X17283Y-43346D03*
X17480Y-43346D03*
X17677Y-43346D03*
X17677Y-42165D03*
X17480Y-42165D03*
X17283Y-42165D03*
X17086Y-42165D03*
X16889Y-42165D03*
G54D17*
X17480Y-42755D03*
G54D18*
X15669Y-42342D03*
X15669Y-43090D03*
G54D19*
X42538Y-42283D03*
X41712Y-42283D03*
G54D14*
X43267Y-43129D03*
X43267Y-42303D03*
G54D19*
X42538Y-43149D03*
X41712Y-43149D03*
G54D13*
X18996Y-42755D03*
X19744Y-42755D03*
G54D20*
X23267Y-44467D03*
X23267Y-43799D03*
X23267Y-40965D03*
X23267Y-41633D03*
G54D21*
X14350Y-42087D03*
X14350Y-42402D03*
X14350Y-42717D03*
X14350Y-43032D03*
X14350Y-43347D03*
G54D22*
X11987Y-40965D03*
G54D23*
X14310Y-40965D03*
G54D22*
X11988Y-44470D03*
G54D23*
X14310Y-44469D03*
G54D24*
X13149Y-41851D03*
X13149Y-43583D03*
G54D25*
X20787Y-42303D03*
X20787Y-43051D03*
X21653Y-42677D03*
G54D26*
X42538Y-43149D03*
X15669Y-40905D03*
X18464Y-41535D03*
X18858Y-44448D03*
X13267Y-43031D03*
X18307Y-43385D03*
X16889Y-43976D03*
X16338Y-41850D03*
X23267Y-42322D03*
X23267Y-43110D03*
X39232Y-42716D03*
G54D27*
X14173Y-41692D02*
X14350Y-41870D01*
X14350Y-41870D02*
X14350Y-42087D01*
X11797Y-42216D02*
X11797Y-41982D01*
X13385Y-41417D02*
X13661Y-41692D01*
X12952Y-41417D02*
X13385Y-41417D01*
X12716Y-41653D02*
X12952Y-41417D01*
X12125Y-41653D02*
X12716Y-41653D01*
X11797Y-41982D02*
X12125Y-41653D01*
X13661Y-41692D02*
X14173Y-41692D01*
G54D28*
X15413Y-42087D02*
X15669Y-42342D01*
X14350Y-42087D02*
X15413Y-42087D01*
G54D27*
X16417Y-42165D02*
X16889Y-42165D01*
X16240Y-42342D02*
X16417Y-42165D01*
X15669Y-42342D02*
X16240Y-42342D01*
G54D28*
X42559Y-43129D02*
X43425Y-43129D01*
X42538Y-43149D02*
X42559Y-43129D01*
X42538Y-42283D02*
X42538Y-43149D01*
X15669Y-40905D02*
X15669Y-42342D01*
G54D27*
X17480Y-41732D02*
X17677Y-41535D01*
X17677Y-41535D02*
X18464Y-41535D01*
X18858Y-44448D02*
X18937Y-44370D01*
X18937Y-44370D02*
X19448Y-44370D01*
X17480Y-42165D02*
X17480Y-41732D01*
X18897Y-42165D02*
X18996Y-42263D01*
X18996Y-42263D02*
X18996Y-42755D01*
X17677Y-42165D02*
X18897Y-42165D01*
X12952Y-42716D02*
X13267Y-43031D01*
X18307Y-43385D02*
X18346Y-43346D01*
X18346Y-43346D02*
X18937Y-43346D01*
X18937Y-43346D02*
X18996Y-43287D01*
X18996Y-43287D02*
X18996Y-42755D01*
X11797Y-42716D02*
X12952Y-42716D01*
X16968Y-44055D02*
X16889Y-43976D01*
X16889Y-43976D02*
X16889Y-43346D01*
X17086Y-41732D02*
X17086Y-42165D01*
X19370Y-40984D02*
X19448Y-41062D01*
X17086Y-41732D02*
X17086Y-41338D01*
X17440Y-40984D02*
X17086Y-41338D01*
X17440Y-40984D02*
X19370Y-40984D01*
X16574Y-41850D02*
X16692Y-41732D01*
X16692Y-41732D02*
X17086Y-41732D01*
X16338Y-41850D02*
X16574Y-41850D01*
G54D28*
X14350Y-43347D02*
X14882Y-43347D01*
G54D27*
X17677Y-43346D02*
X17677Y-43740D01*
G54D28*
X23267Y-42322D02*
X23270Y-42319D01*
X23264Y-43113D02*
X23267Y-43110D01*
X23264Y-43877D02*
X23264Y-43113D01*
X23127Y-43740D02*
X23264Y-43877D01*
X20787Y-43740D02*
X23127Y-43740D01*
X17677Y-43740D02*
X20787Y-43740D01*
G54D27*
X11797Y-43372D02*
X12244Y-43818D01*
X12244Y-43818D02*
X12755Y-43818D01*
X12755Y-43818D02*
X12952Y-44015D01*
X12952Y-44015D02*
X13385Y-44015D01*
X13385Y-44015D02*
X13622Y-43779D01*
X13622Y-43779D02*
X14251Y-43779D01*
X14251Y-43779D02*
X14350Y-43681D01*
X14350Y-43681D02*
X14350Y-43347D01*
X11797Y-43216D02*
X11797Y-43372D01*
X17362Y-42834D02*
X17559Y-42834D01*
X17559Y-42834D02*
X17677Y-42952D01*
X17677Y-42952D02*
X17677Y-43346D01*
X17283Y-42755D02*
X17362Y-42834D01*
G54D28*
X20787Y-43740D02*
X20787Y-43740D01*
X20787Y-43051D02*
X20787Y-43740D01*
X15412Y-43347D02*
X15669Y-43090D01*
X14350Y-43347D02*
X15412Y-43347D01*
X15669Y-43818D02*
X16220Y-44370D01*
X16220Y-44370D02*
X17047Y-44370D01*
X17047Y-44370D02*
X17677Y-43740D01*
X15669Y-43090D02*
X15669Y-43818D01*
X23267Y-41633D02*
X23267Y-42322D01*
G54D27*
X43149Y-41811D02*
X43267Y-41929D01*
X43267Y-41929D02*
X43267Y-42303D01*
X38484Y-42716D02*
X38484Y-42066D01*
X38740Y-41811D02*
X38484Y-42066D01*
X38740Y-41811D02*
X43149Y-41811D01*
G54D28*
X41712Y-42283D02*
X40925Y-42283D01*
X40925Y-43149D02*
X41712Y-43149D01*
G54D27*
X19744Y-42342D02*
X19783Y-42303D01*
X19783Y-42303D02*
X20787Y-42303D01*
X19744Y-42755D02*
X19744Y-42342D01*
G54D28*
X40177Y-42283D02*
X40177Y-43149D01*
X39665Y-43149D02*
X40177Y-43149D01*
X39232Y-42716D02*
X39665Y-43149D01*
X39232Y-43366D02*
X39232Y-42716D01*
X39212Y-43385D02*
X38031Y-43385D01*
X21653Y-42677D02*
X37322Y-42677D01*
X38031Y-43385D02*
X37322Y-42677D01*
X39212Y-43385D02*
X39232Y-43366D01*
X22519Y-44370D02*
X23167Y-44370D01*
X23167Y-44370D02*
X23264Y-44467D01*
X23173Y-40984D02*
X23270Y-40887D01*
X23169Y-41062D02*
X23267Y-40965D01*
X22519Y-41062D02*
X23169Y-41062D01*
G54D10*
G36*
X25354Y-43605D02*
X23920Y-45039D01*
X23681Y-45039D01*
X23681Y-44035D01*
X23681Y-43888D01*
X23681Y-43711D01*
X23681Y-43564D01*
X23651Y-43491D01*
X23595Y-43436D01*
X23523Y-43406D01*
X23445Y-43406D01*
X23356Y-43406D01*
X23307Y-43455D01*
X23307Y-43760D01*
X23631Y-43760D01*
X23681Y-43711D01*
X23681Y-43888D01*
X23631Y-43839D01*
X23307Y-43839D01*
X23307Y-43847D01*
X23228Y-43847D01*
X23228Y-43839D01*
X23228Y-43760D01*
X23228Y-43455D01*
X23179Y-43406D01*
X23090Y-43406D01*
X23012Y-43406D01*
X22939Y-43436D01*
X22884Y-43491D01*
X22854Y-43564D01*
X22854Y-43711D01*
X22903Y-43760D01*
X23228Y-43760D01*
X23228Y-43839D01*
X22903Y-43839D01*
X22854Y-43888D01*
X22854Y-44022D01*
X22838Y-44015D01*
X22791Y-44015D01*
X22200Y-44015D01*
X22157Y-44033D01*
X22124Y-44066D01*
X22106Y-44110D01*
X22106Y-44157D01*
X22106Y-44629D01*
X22124Y-44673D01*
X22157Y-44706D01*
X22200Y-44724D01*
X22247Y-44724D01*
X22838Y-44724D01*
X22881Y-44706D01*
X22915Y-44673D01*
X22933Y-44629D01*
X22933Y-44582D01*
X22933Y-44566D01*
X22933Y-44566D01*
X22933Y-44687D01*
X22951Y-44731D01*
X22984Y-44764D01*
X23027Y-44782D01*
X23074Y-44782D01*
X23507Y-44782D01*
X23551Y-44764D01*
X23584Y-44731D01*
X23602Y-44687D01*
X23602Y-44640D01*
X23602Y-44247D01*
X23584Y-44204D01*
X23558Y-44178D01*
X23595Y-44163D01*
X23651Y-44107D01*
X23681Y-44035D01*
X23681Y-45039D01*
X21259Y-45039D01*
X21259Y-43287D01*
X21259Y-43139D01*
X21210Y-43090D01*
X20826Y-43090D01*
X20826Y-43395D01*
X20875Y-43444D01*
X21023Y-43444D01*
X21102Y-43444D01*
X21174Y-43414D01*
X21229Y-43359D01*
X21259Y-43287D01*
X21259Y-45039D01*
X20748Y-45039D01*
X20748Y-43395D01*
X20748Y-43090D01*
X20748Y-43011D01*
X20748Y-42706D01*
X20698Y-42657D01*
X20550Y-42657D01*
X20472Y-42657D01*
X20400Y-42687D01*
X20344Y-42742D01*
X20314Y-42815D01*
X20314Y-42962D01*
X20364Y-43011D01*
X20748Y-43011D01*
X20748Y-43090D01*
X20364Y-43090D01*
X20314Y-43139D01*
X20314Y-43287D01*
X20344Y-43359D01*
X20400Y-43414D01*
X20472Y-43444D01*
X20550Y-43444D01*
X20698Y-43444D01*
X20748Y-43395D01*
X20748Y-45039D01*
X19862Y-45039D01*
X19862Y-44688D01*
X19862Y-44641D01*
X19862Y-44051D01*
X19844Y-44007D01*
X19810Y-43974D01*
X19767Y-43956D01*
X19720Y-43956D01*
X19130Y-43956D01*
X19086Y-43974D01*
X19053Y-44007D01*
X19035Y-44051D01*
X19035Y-44098D01*
X19035Y-44202D01*
X18984Y-44202D01*
X18913Y-44173D01*
X18803Y-44173D01*
X18702Y-44215D01*
X18624Y-44292D01*
X18582Y-44393D01*
X18582Y-44503D01*
X18624Y-44604D01*
X18701Y-44682D01*
X18803Y-44724D01*
X18912Y-44724D01*
X19014Y-44682D01*
X19035Y-44661D01*
X19035Y-44688D01*
X19053Y-44732D01*
X19086Y-44765D01*
X19130Y-44783D01*
X19177Y-44783D01*
X19767Y-44783D01*
X19810Y-44765D01*
X19844Y-44732D01*
X19862Y-44688D01*
X19862Y-45039D01*
X17923Y-45039D01*
X17923Y-43582D01*
X17923Y-43435D01*
X17874Y-43385D01*
X17701Y-43385D01*
X17701Y-43690D01*
X17750Y-43740D01*
X17765Y-43740D01*
X17837Y-43710D01*
X17893Y-43654D01*
X17923Y-43582D01*
X17923Y-45039D01*
X16161Y-45039D01*
X16161Y-43385D01*
X16161Y-43179D01*
X16111Y-43129D01*
X15708Y-43129D01*
X15708Y-43493D01*
X15757Y-43542D01*
X15925Y-43542D01*
X16003Y-43542D01*
X16075Y-43512D01*
X16131Y-43457D01*
X16161Y-43385D01*
X16161Y-45039D01*
X15551Y-45039D01*
X15551Y-43542D01*
X15580Y-43542D01*
X15629Y-43493D01*
X15629Y-43129D01*
X15622Y-43129D01*
X15622Y-43051D01*
X15629Y-43051D01*
X15629Y-43043D01*
X15708Y-43043D01*
X15708Y-43051D01*
X16111Y-43051D01*
X16161Y-43001D01*
X16161Y-42795D01*
X16131Y-42723D01*
X16075Y-42668D01*
X16064Y-42663D01*
X16082Y-42621D01*
X16082Y-42574D01*
X16082Y-42509D01*
X16240Y-42509D01*
X16240Y-42509D01*
X16293Y-42499D01*
X16304Y-42497D01*
X16304Y-42497D01*
X16358Y-42460D01*
X16486Y-42332D01*
X16621Y-42332D01*
X16585Y-42368D01*
X16555Y-42441D01*
X16555Y-42667D01*
X16604Y-42716D01*
X17440Y-42716D01*
X17440Y-42708D01*
X17519Y-42708D01*
X17519Y-42716D01*
X18356Y-42716D01*
X18405Y-42667D01*
X18405Y-42441D01*
X18375Y-42368D01*
X18339Y-42332D01*
X18828Y-42332D01*
X18828Y-42333D01*
X18828Y-42342D01*
X18717Y-42342D01*
X18673Y-42360D01*
X18640Y-42394D01*
X18622Y-42437D01*
X18622Y-42484D01*
X18622Y-43074D01*
X18640Y-43117D01*
X18673Y-43151D01*
X18717Y-43169D01*
X18764Y-43169D01*
X18828Y-43169D01*
X18828Y-43179D01*
X18490Y-43179D01*
X18463Y-43152D01*
X18385Y-43119D01*
X18405Y-43070D01*
X18405Y-42844D01*
X18356Y-42795D01*
X17519Y-42795D01*
X17519Y-42803D01*
X17440Y-42803D01*
X17440Y-42795D01*
X16604Y-42795D01*
X16555Y-42844D01*
X16555Y-43070D01*
X16585Y-43143D01*
X16640Y-43198D01*
X16712Y-43228D01*
X16722Y-43228D01*
X16722Y-43346D01*
X16722Y-43566D01*
X16722Y-43754D01*
X16656Y-43820D01*
X16614Y-43921D01*
X16614Y-44030D01*
X16655Y-44132D01*
X16733Y-44209D01*
X16834Y-44251D01*
X16944Y-44252D01*
X17045Y-44210D01*
X17073Y-44182D01*
X17086Y-44173D01*
X17095Y-44160D01*
X17123Y-44132D01*
X17165Y-44031D01*
X17165Y-43921D01*
X17123Y-43820D01*
X17057Y-43753D01*
X17057Y-43661D01*
X17060Y-43661D01*
X17159Y-43661D01*
X17185Y-43650D01*
X17210Y-43661D01*
X17257Y-43661D01*
X17356Y-43661D01*
X17381Y-43650D01*
X17407Y-43661D01*
X17454Y-43661D01*
X17467Y-43661D01*
X17516Y-43710D01*
X17588Y-43740D01*
X17603Y-43740D01*
X17652Y-43690D01*
X17652Y-43385D01*
X17647Y-43385D01*
X17647Y-43307D01*
X17652Y-43307D01*
X17652Y-43299D01*
X17701Y-43299D01*
X17701Y-43307D01*
X17874Y-43307D01*
X17923Y-43257D01*
X17923Y-43228D01*
X18074Y-43228D01*
X18073Y-43229D01*
X18031Y-43330D01*
X18031Y-43440D01*
X18073Y-43541D01*
X18150Y-43619D01*
X18252Y-43661D01*
X18361Y-43661D01*
X18462Y-43619D01*
X18540Y-43542D01*
X18552Y-43513D01*
X18937Y-43513D01*
X18937Y-43513D01*
X18990Y-43503D01*
X19001Y-43501D01*
X19001Y-43501D01*
X19055Y-43464D01*
X19114Y-43405D01*
X19114Y-43405D01*
X19150Y-43351D01*
X19150Y-43351D01*
X19163Y-43287D01*
X19163Y-43169D01*
X19275Y-43169D01*
X19318Y-43151D01*
X19351Y-43117D01*
X19369Y-43074D01*
X19369Y-43027D01*
X19369Y-42437D01*
X19351Y-42394D01*
X19318Y-42360D01*
X19275Y-42342D01*
X19228Y-42342D01*
X19163Y-42342D01*
X19163Y-42263D01*
X19152Y-42210D01*
X19150Y-42199D01*
X19150Y-42199D01*
X19114Y-42145D01*
X19015Y-42047D01*
X18961Y-42010D01*
X18951Y-42008D01*
X18897Y-41998D01*
X17844Y-41998D01*
X17844Y-41945D01*
X17826Y-41901D01*
X17793Y-41868D01*
X17749Y-41850D01*
X17702Y-41850D01*
X17647Y-41850D01*
X17647Y-41801D01*
X17746Y-41702D01*
X18242Y-41702D01*
X18308Y-41768D01*
X18409Y-41810D01*
X18519Y-41811D01*
X18620Y-41769D01*
X18698Y-41691D01*
X18740Y-41590D01*
X18740Y-41480D01*
X18698Y-41379D01*
X18620Y-41301D01*
X18519Y-41259D01*
X18409Y-41259D01*
X18308Y-41301D01*
X18242Y-41368D01*
X17677Y-41368D01*
X17613Y-41380D01*
X17558Y-41417D01*
X17362Y-41613D01*
X17325Y-41668D01*
X17323Y-41678D01*
X17312Y-41732D01*
X17312Y-41850D01*
X17309Y-41850D01*
X17253Y-41850D01*
X17253Y-41732D01*
X17253Y-41407D01*
X17510Y-41151D01*
X19035Y-41151D01*
X19035Y-41381D01*
X19053Y-41425D01*
X19086Y-41458D01*
X19130Y-41476D01*
X19177Y-41476D01*
X19767Y-41476D01*
X19810Y-41458D01*
X19844Y-41425D01*
X19862Y-41381D01*
X19862Y-41334D01*
X19862Y-40744D01*
X19844Y-40700D01*
X19810Y-40667D01*
X19767Y-40649D01*
X19720Y-40649D01*
X19130Y-40649D01*
X19086Y-40667D01*
X19053Y-40700D01*
X19035Y-40744D01*
X19035Y-40791D01*
X19035Y-40816D01*
X17440Y-40816D01*
X17376Y-40829D01*
X17358Y-40841D01*
X17322Y-40865D01*
X16968Y-41220D01*
X16932Y-41274D01*
X16929Y-41285D01*
X16919Y-41338D01*
X16919Y-41564D01*
X16692Y-41564D01*
X16639Y-41575D01*
X16628Y-41577D01*
X16574Y-41613D01*
X16533Y-41655D01*
X16494Y-41616D01*
X16393Y-41574D01*
X16284Y-41574D01*
X16182Y-41616D01*
X16105Y-41694D01*
X16063Y-41795D01*
X16062Y-41904D01*
X16104Y-42006D01*
X16182Y-42083D01*
X16238Y-42107D01*
X16170Y-42175D01*
X16082Y-42175D01*
X16082Y-42063D01*
X16064Y-42020D01*
X16031Y-41986D01*
X15987Y-41968D01*
X15940Y-41968D01*
X15866Y-41968D01*
X15866Y-41098D01*
X15902Y-41061D01*
X15944Y-40960D01*
X15944Y-40850D01*
X15903Y-40749D01*
X15825Y-40672D01*
X15724Y-40629D01*
X15614Y-40629D01*
X15551Y-40656D01*
X15551Y-40393D01*
X23920Y-40393D01*
X25354Y-41827D01*
X25354Y-42480D01*
X23681Y-42480D01*
X23681Y-41868D01*
X23681Y-41721D01*
X23681Y-41544D01*
X23681Y-41397D01*
X23651Y-41325D01*
X23595Y-41269D01*
X23558Y-41254D01*
X23584Y-41228D01*
X23602Y-41185D01*
X23602Y-41138D01*
X23602Y-40745D01*
X23584Y-40701D01*
X23551Y-40668D01*
X23507Y-40650D01*
X23460Y-40650D01*
X23027Y-40650D01*
X22984Y-40668D01*
X22951Y-40701D01*
X22933Y-40745D01*
X22933Y-40792D01*
X22933Y-40866D01*
X22933Y-40866D01*
X22933Y-40803D01*
X22915Y-40759D01*
X22881Y-40726D01*
X22838Y-40708D01*
X22791Y-40708D01*
X22200Y-40708D01*
X22157Y-40726D01*
X22124Y-40759D01*
X22106Y-40803D01*
X22106Y-40850D01*
X22106Y-41322D01*
X22124Y-41366D01*
X22157Y-41399D01*
X22200Y-41417D01*
X22247Y-41417D01*
X22838Y-41417D01*
X22854Y-41410D01*
X22854Y-41544D01*
X22903Y-41593D01*
X23228Y-41593D01*
X23228Y-41585D01*
X23307Y-41585D01*
X23307Y-41593D01*
X23631Y-41593D01*
X23681Y-41544D01*
X23681Y-41721D01*
X23631Y-41672D01*
X23307Y-41672D01*
X23307Y-41977D01*
X23356Y-42026D01*
X23445Y-42026D01*
X23523Y-42026D01*
X23595Y-41996D01*
X23651Y-41941D01*
X23681Y-41868D01*
X23681Y-42480D01*
X23228Y-42480D01*
X23228Y-41977D01*
X23228Y-41672D01*
X22903Y-41672D01*
X22854Y-41721D01*
X22854Y-41868D01*
X22884Y-41941D01*
X22939Y-41996D01*
X23012Y-42026D01*
X23090Y-42026D01*
X23179Y-42026D01*
X23228Y-41977D01*
X23228Y-42480D01*
X22047Y-42480D01*
X22047Y-42456D01*
X22029Y-42413D01*
X21996Y-42380D01*
X21952Y-42362D01*
X21905Y-42362D01*
X21354Y-42362D01*
X21311Y-42380D01*
X21277Y-42413D01*
X21259Y-42456D01*
X21259Y-42503D01*
X21259Y-42815D01*
X21229Y-42742D01*
X21181Y-42694D01*
X21181Y-42523D01*
X21181Y-42476D01*
X21181Y-42082D01*
X21163Y-42039D01*
X21129Y-42006D01*
X21086Y-41988D01*
X21039Y-41988D01*
X20488Y-41988D01*
X20444Y-42006D01*
X20411Y-42039D01*
X20393Y-42082D01*
X20393Y-42129D01*
X20393Y-42135D01*
X19783Y-42135D01*
X19719Y-42148D01*
X19701Y-42160D01*
X19665Y-42184D01*
X19625Y-42224D01*
X19589Y-42278D01*
X19587Y-42289D01*
X19576Y-42342D01*
X19576Y-42342D01*
X19465Y-42342D01*
X19421Y-42360D01*
X19388Y-42394D01*
X19370Y-42437D01*
X19370Y-42484D01*
X19370Y-43074D01*
X19388Y-43117D01*
X19421Y-43151D01*
X19465Y-43169D01*
X19512Y-43169D01*
X20023Y-43169D01*
X20066Y-43151D01*
X20099Y-43117D01*
X20117Y-43074D01*
X20117Y-43027D01*
X20117Y-42470D01*
X20393Y-42470D01*
X20393Y-42523D01*
X20411Y-42566D01*
X20444Y-42600D01*
X20488Y-42618D01*
X20535Y-42618D01*
X21086Y-42618D01*
X21129Y-42600D01*
X21163Y-42566D01*
X21181Y-42523D01*
X21181Y-42694D01*
X21174Y-42687D01*
X21102Y-42657D01*
X21023Y-42657D01*
X20875Y-42657D01*
X20826Y-42706D01*
X20826Y-43011D01*
X21210Y-43011D01*
X21259Y-42962D01*
X21259Y-42897D01*
X21277Y-42940D01*
X21311Y-42974D01*
X21354Y-42992D01*
X21401Y-42992D01*
X21952Y-42992D01*
X21996Y-42974D01*
X22029Y-42940D01*
X22047Y-42897D01*
X22047Y-42874D01*
X25354Y-42874D01*
X25354Y-43605D01*
X25354Y-43605D01*
G37*
G54D29*
X25354Y-43605D02*
X23920Y-45039D01*
X23681Y-45039D01*
X23681Y-44035D01*
X23681Y-43888D01*
X23681Y-43711D01*
X23681Y-43564D01*
X23651Y-43491D01*
X23595Y-43436D01*
X23523Y-43406D01*
X23445Y-43406D01*
X23356Y-43406D01*
X23307Y-43455D01*
X23307Y-43760D01*
X23631Y-43760D01*
X23681Y-43711D01*
X23681Y-43888D01*
X23631Y-43839D01*
X23307Y-43839D01*
X23307Y-43847D01*
X23228Y-43847D01*
X23228Y-43839D01*
X23228Y-43760D01*
X23228Y-43455D01*
X23179Y-43406D01*
X23090Y-43406D01*
X23012Y-43406D01*
X22939Y-43436D01*
X22884Y-43491D01*
X22854Y-43564D01*
X22854Y-43711D01*
X22903Y-43760D01*
X23228Y-43760D01*
X23228Y-43839D01*
X22903Y-43839D01*
X22854Y-43888D01*
X22854Y-44022D01*
X22838Y-44015D01*
X22791Y-44015D01*
X22200Y-44015D01*
X22157Y-44033D01*
X22124Y-44066D01*
X22106Y-44110D01*
X22106Y-44157D01*
X22106Y-44629D01*
X22124Y-44673D01*
X22157Y-44706D01*
X22200Y-44724D01*
X22247Y-44724D01*
X22838Y-44724D01*
X22881Y-44706D01*
X22915Y-44673D01*
X22933Y-44629D01*
X22933Y-44582D01*
X22933Y-44566D01*
X22933Y-44566D01*
X22933Y-44687D01*
X22951Y-44731D01*
X22984Y-44764D01*
X23027Y-44782D01*
X23074Y-44782D01*
X23507Y-44782D01*
X23551Y-44764D01*
X23584Y-44731D01*
X23602Y-44687D01*
X23602Y-44640D01*
X23602Y-44247D01*
X23584Y-44204D01*
X23558Y-44178D01*
X23595Y-44163D01*
X23651Y-44107D01*
X23681Y-44035D01*
X23681Y-45039D01*
X21259Y-45039D01*
X21259Y-43287D01*
X21259Y-43139D01*
X21210Y-43090D01*
X20826Y-43090D01*
X20826Y-43395D01*
X20875Y-43444D01*
X21023Y-43444D01*
X21102Y-43444D01*
X21174Y-43414D01*
X21229Y-43359D01*
X21259Y-43287D01*
X21259Y-45039D01*
X20748Y-45039D01*
X20748Y-43395D01*
X20748Y-43090D01*
X20748Y-43011D01*
X20748Y-42706D01*
X20698Y-42657D01*
X20550Y-42657D01*
X20472Y-42657D01*
X20400Y-42687D01*
X20344Y-42742D01*
X20314Y-42815D01*
X20314Y-42962D01*
X20364Y-43011D01*
X20748Y-43011D01*
X20748Y-43090D01*
X20364Y-43090D01*
X20314Y-43139D01*
X20314Y-43287D01*
X20344Y-43359D01*
X20400Y-43414D01*
X20472Y-43444D01*
X20550Y-43444D01*
X20698Y-43444D01*
X20748Y-43395D01*
X20748Y-45039D01*
X19862Y-45039D01*
X19862Y-44688D01*
X19862Y-44641D01*
X19862Y-44051D01*
X19844Y-44007D01*
X19810Y-43974D01*
X19767Y-43956D01*
X19720Y-43956D01*
X19130Y-43956D01*
X19086Y-43974D01*
X19053Y-44007D01*
X19035Y-44051D01*
X19035Y-44098D01*
X19035Y-44202D01*
X18984Y-44202D01*
X18913Y-44173D01*
X18803Y-44173D01*
X18702Y-44215D01*
X18624Y-44292D01*
X18582Y-44393D01*
X18582Y-44503D01*
X18624Y-44604D01*
X18701Y-44682D01*
X18803Y-44724D01*
X18912Y-44724D01*
X19014Y-44682D01*
X19035Y-44661D01*
X19035Y-44688D01*
X19053Y-44732D01*
X19086Y-44765D01*
X19130Y-44783D01*
X19177Y-44783D01*
X19767Y-44783D01*
X19810Y-44765D01*
X19844Y-44732D01*
X19862Y-44688D01*
X19862Y-45039D01*
X17923Y-45039D01*
X17923Y-43582D01*
X17923Y-43435D01*
X17874Y-43385D01*
X17701Y-43385D01*
X17701Y-43690D01*
X17750Y-43740D01*
X17765Y-43740D01*
X17837Y-43710D01*
X17893Y-43654D01*
X17923Y-43582D01*
X17923Y-45039D01*
X16161Y-45039D01*
X16161Y-43385D01*
X16161Y-43179D01*
X16111Y-43129D01*
X15708Y-43129D01*
X15708Y-43493D01*
X15757Y-43542D01*
X15925Y-43542D01*
X16003Y-43542D01*
X16075Y-43512D01*
X16131Y-43457D01*
X16161Y-43385D01*
X16161Y-45039D01*
X15551Y-45039D01*
X15551Y-43542D01*
X15580Y-43542D01*
X15629Y-43493D01*
X15629Y-43129D01*
X15622Y-43129D01*
X15622Y-43051D01*
X15629Y-43051D01*
X15629Y-43043D01*
X15708Y-43043D01*
X15708Y-43051D01*
X16111Y-43051D01*
X16161Y-43001D01*
X16161Y-42795D01*
X16131Y-42723D01*
X16075Y-42668D01*
X16064Y-42663D01*
X16082Y-42621D01*
X16082Y-42574D01*
X16082Y-42509D01*
X16240Y-42509D01*
X16240Y-42509D01*
X16293Y-42499D01*
X16304Y-42497D01*
X16304Y-42497D01*
X16358Y-42460D01*
X16486Y-42332D01*
X16621Y-42332D01*
X16585Y-42368D01*
X16555Y-42441D01*
X16555Y-42667D01*
X16604Y-42716D01*
X17440Y-42716D01*
X17440Y-42708D01*
X17519Y-42708D01*
X17519Y-42716D01*
X18356Y-42716D01*
X18405Y-42667D01*
X18405Y-42441D01*
X18375Y-42368D01*
X18339Y-42332D01*
X18828Y-42332D01*
X18828Y-42333D01*
X18828Y-42342D01*
X18717Y-42342D01*
X18673Y-42360D01*
X18640Y-42394D01*
X18622Y-42437D01*
X18622Y-42484D01*
X18622Y-43074D01*
X18640Y-43117D01*
X18673Y-43151D01*
X18717Y-43169D01*
X18764Y-43169D01*
X18828Y-43169D01*
X18828Y-43179D01*
X18490Y-43179D01*
X18463Y-43152D01*
X18385Y-43119D01*
X18405Y-43070D01*
X18405Y-42844D01*
X18356Y-42795D01*
X17519Y-42795D01*
X17519Y-42803D01*
X17440Y-42803D01*
X17440Y-42795D01*
X16604Y-42795D01*
X16555Y-42844D01*
X16555Y-43070D01*
X16585Y-43143D01*
X16640Y-43198D01*
X16712Y-43228D01*
X16722Y-43228D01*
X16722Y-43346D01*
X16722Y-43566D01*
X16722Y-43754D01*
X16656Y-43820D01*
X16614Y-43921D01*
X16614Y-44030D01*
X16655Y-44132D01*
X16733Y-44209D01*
X16834Y-44251D01*
X16944Y-44252D01*
X17045Y-44210D01*
X17073Y-44182D01*
X17086Y-44173D01*
X17095Y-44160D01*
X17123Y-44132D01*
X17165Y-44031D01*
X17165Y-43921D01*
X17123Y-43820D01*
X17057Y-43753D01*
X17057Y-43661D01*
X17060Y-43661D01*
X17159Y-43661D01*
X17185Y-43650D01*
X17210Y-43661D01*
X17257Y-43661D01*
X17356Y-43661D01*
X17381Y-43650D01*
X17407Y-43661D01*
X17454Y-43661D01*
X17467Y-43661D01*
X17516Y-43710D01*
X17588Y-43740D01*
X17603Y-43740D01*
X17652Y-43690D01*
X17652Y-43385D01*
X17647Y-43385D01*
X17647Y-43307D01*
X17652Y-43307D01*
X17652Y-43299D01*
X17701Y-43299D01*
X17701Y-43307D01*
X17874Y-43307D01*
X17923Y-43257D01*
X17923Y-43228D01*
X18074Y-43228D01*
X18073Y-43229D01*
X18031Y-43330D01*
X18031Y-43440D01*
X18073Y-43541D01*
X18150Y-43619D01*
X18252Y-43661D01*
X18361Y-43661D01*
X18462Y-43619D01*
X18540Y-43542D01*
X18552Y-43513D01*
X18937Y-43513D01*
X18937Y-43513D01*
X18990Y-43503D01*
X19001Y-43501D01*
X19001Y-43501D01*
X19055Y-43464D01*
X19114Y-43405D01*
X19114Y-43405D01*
X19150Y-43351D01*
X19150Y-43351D01*
X19163Y-43287D01*
X19163Y-43169D01*
X19275Y-43169D01*
X19318Y-43151D01*
X19351Y-43117D01*
X19369Y-43074D01*
X19369Y-43027D01*
X19369Y-42437D01*
X19351Y-42394D01*
X19318Y-42360D01*
X19275Y-42342D01*
X19228Y-42342D01*
X19163Y-42342D01*
X19163Y-42263D01*
X19152Y-42210D01*
X19150Y-42199D01*
X19150Y-42199D01*
X19114Y-42145D01*
X19015Y-42047D01*
X18961Y-42010D01*
X18951Y-42008D01*
X18897Y-41998D01*
X17844Y-41998D01*
X17844Y-41945D01*
X17826Y-41901D01*
X17793Y-41868D01*
X17749Y-41850D01*
X17702Y-41850D01*
X17647Y-41850D01*
X17647Y-41801D01*
X17746Y-41702D01*
X18242Y-41702D01*
X18308Y-41768D01*
X18409Y-41810D01*
X18519Y-41811D01*
X18620Y-41769D01*
X18698Y-41691D01*
X18740Y-41590D01*
X18740Y-41480D01*
X18698Y-41379D01*
X18620Y-41301D01*
X18519Y-41259D01*
X18409Y-41259D01*
X18308Y-41301D01*
X18242Y-41368D01*
X17677Y-41368D01*
X17613Y-41380D01*
X17558Y-41417D01*
X17362Y-41613D01*
X17325Y-41668D01*
X17323Y-41678D01*
X17312Y-41732D01*
X17312Y-41850D01*
X17309Y-41850D01*
X17253Y-41850D01*
X17253Y-41732D01*
X17253Y-41407D01*
X17510Y-41151D01*
X19035Y-41151D01*
X19035Y-41381D01*
X19053Y-41425D01*
X19086Y-41458D01*
X19130Y-41476D01*
X19177Y-41476D01*
X19767Y-41476D01*
X19810Y-41458D01*
X19844Y-41425D01*
X19862Y-41381D01*
X19862Y-41334D01*
X19862Y-40744D01*
X19844Y-40700D01*
X19810Y-40667D01*
X19767Y-40649D01*
X19720Y-40649D01*
X19130Y-40649D01*
X19086Y-40667D01*
X19053Y-40700D01*
X19035Y-40744D01*
X19035Y-40791D01*
X19035Y-40816D01*
X17440Y-40816D01*
X17376Y-40829D01*
X17358Y-40841D01*
X17322Y-40865D01*
X16968Y-41220D01*
X16932Y-41274D01*
X16929Y-41285D01*
X16919Y-41338D01*
X16919Y-41564D01*
X16692Y-41564D01*
X16639Y-41575D01*
X16628Y-41577D01*
X16574Y-41613D01*
X16533Y-41655D01*
X16494Y-41616D01*
X16393Y-41574D01*
X16284Y-41574D01*
X16182Y-41616D01*
X16105Y-41694D01*
X16063Y-41795D01*
X16062Y-41904D01*
X16104Y-42006D01*
X16182Y-42083D01*
X16238Y-42107D01*
X16170Y-42175D01*
X16082Y-42175D01*
X16082Y-42063D01*
X16064Y-42020D01*
X16031Y-41986D01*
X15987Y-41968D01*
X15940Y-41968D01*
X15866Y-41968D01*
X15866Y-41098D01*
X15902Y-41061D01*
X15944Y-40960D01*
X15944Y-40850D01*
X15903Y-40749D01*
X15825Y-40672D01*
X15724Y-40629D01*
X15614Y-40629D01*
X15551Y-40656D01*
X15551Y-40393D01*
X23920Y-40393D01*
X25354Y-41827D01*
X25354Y-42480D01*
X23681Y-42480D01*
X23681Y-41868D01*
X23681Y-41721D01*
X23681Y-41544D01*
X23681Y-41397D01*
X23651Y-41325D01*
X23595Y-41269D01*
X23558Y-41254D01*
X23584Y-41228D01*
X23602Y-41185D01*
X23602Y-41138D01*
X23602Y-40745D01*
X23584Y-40701D01*
X23551Y-40668D01*
X23507Y-40650D01*
X23460Y-40650D01*
X23027Y-40650D01*
X22984Y-40668D01*
X22951Y-40701D01*
X22933Y-40745D01*
X22933Y-40792D01*
X22933Y-40866D01*
X22933Y-40866D01*
X22933Y-40803D01*
X22915Y-40759D01*
X22881Y-40726D01*
X22838Y-40708D01*
X22791Y-40708D01*
X22200Y-40708D01*
X22157Y-40726D01*
X22124Y-40759D01*
X22106Y-40803D01*
X22106Y-40850D01*
X22106Y-41322D01*
X22124Y-41366D01*
X22157Y-41399D01*
X22200Y-41417D01*
X22247Y-41417D01*
X22838Y-41417D01*
X22854Y-41410D01*
X22854Y-41544D01*
X22903Y-41593D01*
X23228Y-41593D01*
X23228Y-41585D01*
X23307Y-41585D01*
X23307Y-41593D01*
X23631Y-41593D01*
X23681Y-41544D01*
X23681Y-41721D01*
X23631Y-41672D01*
X23307Y-41672D01*
X23307Y-41977D01*
X23356Y-42026D01*
X23445Y-42026D01*
X23523Y-42026D01*
X23595Y-41996D01*
X23651Y-41941D01*
X23681Y-41868D01*
X23681Y-42480D01*
X23228Y-42480D01*
X23228Y-41977D01*
X23228Y-41672D01*
X22903Y-41672D01*
X22854Y-41721D01*
X22854Y-41868D01*
X22884Y-41941D01*
X22939Y-41996D01*
X23012Y-42026D01*
X23090Y-42026D01*
X23179Y-42026D01*
X23228Y-41977D01*
X23228Y-42480D01*
X22047Y-42480D01*
X22047Y-42456D01*
X22029Y-42413D01*
X21996Y-42380D01*
X21952Y-42362D01*
X21905Y-42362D01*
X21354Y-42362D01*
X21311Y-42380D01*
X21277Y-42413D01*
X21259Y-42456D01*
X21259Y-42503D01*
X21259Y-42815D01*
X21229Y-42742D01*
X21181Y-42694D01*
X21181Y-42523D01*
X21181Y-42476D01*
X21181Y-42082D01*
X21163Y-42039D01*
X21129Y-42006D01*
X21086Y-41988D01*
X21039Y-41988D01*
X20488Y-41988D01*
X20444Y-42006D01*
X20411Y-42039D01*
X20393Y-42082D01*
X20393Y-42129D01*
X20393Y-42135D01*
X19783Y-42135D01*
X19719Y-42148D01*
X19701Y-42160D01*
X19665Y-42184D01*
X19625Y-42224D01*
X19589Y-42278D01*
X19587Y-42289D01*
X19576Y-42342D01*
X19576Y-42342D01*
X19465Y-42342D01*
X19421Y-42360D01*
X19388Y-42394D01*
X19370Y-42437D01*
X19370Y-42484D01*
X19370Y-43074D01*
X19388Y-43117D01*
X19421Y-43151D01*
X19465Y-43169D01*
X19512Y-43169D01*
X20023Y-43169D01*
X20066Y-43151D01*
X20099Y-43117D01*
X20117Y-43074D01*
X20117Y-43027D01*
X20117Y-42470D01*
X20393Y-42470D01*
X20393Y-42523D01*
X20411Y-42566D01*
X20444Y-42600D01*
X20488Y-42618D01*
X20535Y-42618D01*
X21086Y-42618D01*
X21129Y-42600D01*
X21163Y-42566D01*
X21181Y-42523D01*
X21181Y-42694D01*
X21174Y-42687D01*
X21102Y-42657D01*
X21023Y-42657D01*
X20875Y-42657D01*
X20826Y-42706D01*
X20826Y-43011D01*
X21210Y-43011D01*
X21259Y-42962D01*
X21259Y-42897D01*
X21277Y-42940D01*
X21311Y-42974D01*
X21354Y-42992D01*
X21401Y-42992D01*
X21952Y-42992D01*
X21996Y-42974D01*
X22029Y-42940D01*
X22047Y-42897D01*
X22047Y-42874D01*
X25354Y-42874D01*
X25354Y-43605D01*
M02*
