%FSLAX34Y34*%
G04 Gerber Fmt 3.4, Leading zero omitted, Abs format*
G04 (created by PCBNEW (2014-02-28 BZR 4729)-product) date Mon 03 Mar 2014 11:35:53 AM CET*
%MOIN*%
G01*
G70*
G90*
G04 APERTURE LIST*
%ADD10C,0.005906*%
%ADD11C,0.011811*%
%ADD12C,0.007874*%
%ADD13C,0.000100*%
%ADD14C,0.003937*%
%ADD15R,0.040000X0.040000*%
%ADD16C,0.040000*%
%ADD17R,0.051100X0.059000*%
%ADD18R,0.059055X0.047244*%
%ADD19R,0.047244X0.059055*%
%ADD20C,0.035400*%
G04 APERTURE END LIST*
G54D10*
G54D11*
X37168Y-41937D02*
X37140Y-41909D01*
X37083Y-41881D01*
X36943Y-41881D01*
X36886Y-41909D01*
X36858Y-41937D01*
X36830Y-41993D01*
X36830Y-42050D01*
X36858Y-42134D01*
X37196Y-42471D01*
X36830Y-42471D01*
X36465Y-41881D02*
X36408Y-41881D01*
X36352Y-41909D01*
X36324Y-41937D01*
X36296Y-41993D01*
X36268Y-42106D01*
X36268Y-42246D01*
X36296Y-42359D01*
X36324Y-42415D01*
X36352Y-42443D01*
X36408Y-42471D01*
X36465Y-42471D01*
X36521Y-42443D01*
X36549Y-42415D01*
X36577Y-42359D01*
X36605Y-42246D01*
X36605Y-42106D01*
X36577Y-41993D01*
X36549Y-41937D01*
X36521Y-41909D01*
X36465Y-41881D01*
X35705Y-42471D02*
X36043Y-42471D01*
X35874Y-42471D02*
X35874Y-41881D01*
X35930Y-41965D01*
X35987Y-42021D01*
X36043Y-42050D01*
X35199Y-42078D02*
X35199Y-42471D01*
X35340Y-41853D02*
X35480Y-42275D01*
X35115Y-42275D01*
X34440Y-42246D02*
X33990Y-42246D01*
X33259Y-42471D02*
X33259Y-41881D01*
X33259Y-42106D02*
X33203Y-42078D01*
X33090Y-42078D01*
X33034Y-42106D01*
X33006Y-42134D01*
X32978Y-42190D01*
X32978Y-42359D01*
X33006Y-42415D01*
X33034Y-42443D01*
X33090Y-42471D01*
X33203Y-42471D01*
X33259Y-42443D01*
X32640Y-42471D02*
X32696Y-42443D01*
X32724Y-42387D01*
X32724Y-41881D01*
X32331Y-42471D02*
X32387Y-42443D01*
X32415Y-42415D01*
X32443Y-42359D01*
X32443Y-42190D01*
X32415Y-42134D01*
X32387Y-42106D01*
X32331Y-42078D01*
X32246Y-42078D01*
X32190Y-42106D01*
X32162Y-42134D01*
X32134Y-42190D01*
X32134Y-42359D01*
X32162Y-42415D01*
X32190Y-42443D01*
X32246Y-42471D01*
X32331Y-42471D01*
X31628Y-42078D02*
X31628Y-42556D01*
X31656Y-42612D01*
X31684Y-42640D01*
X31740Y-42668D01*
X31825Y-42668D01*
X31881Y-42640D01*
X31628Y-42443D02*
X31684Y-42471D01*
X31796Y-42471D01*
X31853Y-42443D01*
X31881Y-42415D01*
X31909Y-42359D01*
X31909Y-42190D01*
X31881Y-42134D01*
X31853Y-42106D01*
X31796Y-42078D01*
X31684Y-42078D01*
X31628Y-42106D01*
X31347Y-42415D02*
X31318Y-42443D01*
X31347Y-42471D01*
X31375Y-42443D01*
X31347Y-42415D01*
X31347Y-42471D01*
X31093Y-42443D02*
X31037Y-42471D01*
X30925Y-42471D01*
X30868Y-42443D01*
X30840Y-42387D01*
X30840Y-42359D01*
X30868Y-42303D01*
X30925Y-42275D01*
X31009Y-42275D01*
X31065Y-42246D01*
X31093Y-42190D01*
X31093Y-42162D01*
X31065Y-42106D01*
X31009Y-42078D01*
X30925Y-42078D01*
X30868Y-42106D01*
X30587Y-42078D02*
X30587Y-42668D01*
X30587Y-42106D02*
X30531Y-42078D01*
X30419Y-42078D01*
X30362Y-42106D01*
X30334Y-42134D01*
X30306Y-42190D01*
X30306Y-42359D01*
X30334Y-42415D01*
X30362Y-42443D01*
X30419Y-42471D01*
X30531Y-42471D01*
X30587Y-42443D01*
X30053Y-42471D02*
X30053Y-42078D01*
X30053Y-41881D02*
X30081Y-41909D01*
X30053Y-41937D01*
X30025Y-41909D01*
X30053Y-41881D01*
X30053Y-41937D01*
X29856Y-42078D02*
X29631Y-42078D01*
X29772Y-41881D02*
X29772Y-42387D01*
X29744Y-42443D01*
X29687Y-42471D01*
X29631Y-42471D01*
X29491Y-42078D02*
X29181Y-42078D01*
X29491Y-42471D01*
X29181Y-42471D01*
X28731Y-42443D02*
X28787Y-42471D01*
X28900Y-42471D01*
X28956Y-42443D01*
X28984Y-42387D01*
X28984Y-42162D01*
X28956Y-42106D01*
X28900Y-42078D01*
X28787Y-42078D01*
X28731Y-42106D01*
X28703Y-42162D01*
X28703Y-42218D01*
X28984Y-42275D01*
X28450Y-42078D02*
X28450Y-42471D01*
X28450Y-42134D02*
X28422Y-42106D01*
X28366Y-42078D01*
X28281Y-42078D01*
X28225Y-42106D01*
X28197Y-42162D01*
X28197Y-42471D01*
X27916Y-42078D02*
X27916Y-42668D01*
X27916Y-42106D02*
X27859Y-42078D01*
X27747Y-42078D01*
X27691Y-42106D01*
X27663Y-42134D01*
X27634Y-42190D01*
X27634Y-42359D01*
X27663Y-42415D01*
X27691Y-42443D01*
X27747Y-42471D01*
X27859Y-42471D01*
X27916Y-42443D01*
X27466Y-42078D02*
X27241Y-42078D01*
X27381Y-42471D02*
X27381Y-41965D01*
X27353Y-41909D01*
X27297Y-41881D01*
X27241Y-41881D01*
X26819Y-42443D02*
X26875Y-42471D01*
X26988Y-42471D01*
X27044Y-42443D01*
X27072Y-42387D01*
X27072Y-42162D01*
X27044Y-42106D01*
X26988Y-42078D01*
X26875Y-42078D01*
X26819Y-42106D01*
X26791Y-42162D01*
X26791Y-42218D01*
X27072Y-42275D01*
X26538Y-42471D02*
X26538Y-42078D01*
X26538Y-41881D02*
X26566Y-41909D01*
X26538Y-41937D01*
X26510Y-41909D01*
X26538Y-41881D01*
X26538Y-41937D01*
X26172Y-42471D02*
X26228Y-42443D01*
X26257Y-42387D01*
X26257Y-41881D01*
X25947Y-42415D02*
X25919Y-42443D01*
X25947Y-42471D01*
X25975Y-42443D01*
X25947Y-42415D01*
X25947Y-42471D01*
X25582Y-42471D02*
X25638Y-42443D01*
X25666Y-42415D01*
X25694Y-42359D01*
X25694Y-42190D01*
X25666Y-42134D01*
X25638Y-42106D01*
X25582Y-42078D01*
X25497Y-42078D01*
X25441Y-42106D01*
X25413Y-42134D01*
X25385Y-42190D01*
X25385Y-42359D01*
X25413Y-42415D01*
X25441Y-42443D01*
X25497Y-42471D01*
X25582Y-42471D01*
X25132Y-42471D02*
X25132Y-42078D01*
X25132Y-42190D02*
X25104Y-42134D01*
X25075Y-42106D01*
X25019Y-42078D01*
X24963Y-42078D01*
X24513Y-42078D02*
X24513Y-42556D01*
X24541Y-42612D01*
X24569Y-42640D01*
X24625Y-42668D01*
X24710Y-42668D01*
X24766Y-42640D01*
X24513Y-42443D02*
X24569Y-42471D01*
X24682Y-42471D01*
X24738Y-42443D01*
X24766Y-42415D01*
X24794Y-42359D01*
X24794Y-42190D01*
X24766Y-42134D01*
X24738Y-42106D01*
X24682Y-42078D01*
X24569Y-42078D01*
X24513Y-42106D01*
X32362Y-42944D02*
X32165Y-43534D01*
X31968Y-42944D01*
X31659Y-42944D02*
X31602Y-42944D01*
X31546Y-42972D01*
X31518Y-43000D01*
X31490Y-43056D01*
X31462Y-43169D01*
X31462Y-43309D01*
X31490Y-43422D01*
X31518Y-43478D01*
X31546Y-43506D01*
X31602Y-43534D01*
X31659Y-43534D01*
X31715Y-43506D01*
X31743Y-43478D01*
X31771Y-43422D01*
X31799Y-43309D01*
X31799Y-43169D01*
X31771Y-43056D01*
X31743Y-43000D01*
X31715Y-42972D01*
X31659Y-42944D01*
X31209Y-43478D02*
X31181Y-43506D01*
X31209Y-43534D01*
X31237Y-43506D01*
X31209Y-43478D01*
X31209Y-43534D01*
X30618Y-43534D02*
X30956Y-43534D01*
X30787Y-43534D02*
X30787Y-42944D01*
X30843Y-43028D01*
X30899Y-43084D01*
X30956Y-43113D01*
X30253Y-42944D02*
X30196Y-42944D01*
X30140Y-42972D01*
X30112Y-43000D01*
X30084Y-43056D01*
X30056Y-43169D01*
X30056Y-43309D01*
X30084Y-43422D01*
X30112Y-43478D01*
X30140Y-43506D01*
X30196Y-43534D01*
X30253Y-43534D01*
X30309Y-43506D01*
X30337Y-43478D01*
X30365Y-43422D01*
X30393Y-43309D01*
X30393Y-43169D01*
X30365Y-43056D01*
X30337Y-43000D01*
X30309Y-42972D01*
X30253Y-42944D01*
X29803Y-43478D02*
X29775Y-43506D01*
X29803Y-43534D01*
X29831Y-43506D01*
X29803Y-43478D01*
X29803Y-43534D01*
X29268Y-43506D02*
X29325Y-43534D01*
X29437Y-43534D01*
X29493Y-43506D01*
X29521Y-43478D01*
X29550Y-43422D01*
X29550Y-43253D01*
X29521Y-43197D01*
X29493Y-43169D01*
X29437Y-43141D01*
X29325Y-43141D01*
X29268Y-43169D01*
G54D12*
X12797Y-41716D02*
X12297Y-41716D01*
X12797Y-41716D02*
X12797Y-42216D01*
X11456Y-41889D02*
X11456Y-43543D01*
X11456Y-43543D02*
X12598Y-43543D01*
X12598Y-43543D02*
X12637Y-43543D01*
X12637Y-43543D02*
X12637Y-41889D01*
X12637Y-41889D02*
X11456Y-41889D01*
G54D13*
G36*
X20507Y-44998D02*
X20515Y-44994D01*
X20534Y-44982D01*
X20560Y-44965D01*
X20591Y-44944D01*
X20622Y-44923D01*
X20648Y-44906D01*
X20666Y-44894D01*
X20673Y-44890D01*
X20677Y-44891D01*
X20692Y-44899D01*
X20714Y-44910D01*
X20726Y-44916D01*
X20746Y-44925D01*
X20756Y-44927D01*
X20757Y-44924D01*
X20765Y-44909D01*
X20776Y-44883D01*
X20791Y-44849D01*
X20808Y-44809D01*
X20826Y-44766D01*
X20844Y-44722D01*
X20862Y-44680D01*
X20877Y-44642D01*
X20890Y-44612D01*
X20898Y-44590D01*
X20901Y-44581D01*
X20900Y-44579D01*
X20890Y-44570D01*
X20873Y-44557D01*
X20835Y-44526D01*
X20799Y-44480D01*
X20776Y-44428D01*
X20769Y-44370D01*
X20775Y-44317D01*
X20796Y-44266D01*
X20832Y-44219D01*
X20876Y-44185D01*
X20927Y-44163D01*
X20984Y-44156D01*
X21039Y-44162D01*
X21091Y-44183D01*
X21138Y-44218D01*
X21157Y-44241D01*
X21184Y-44288D01*
X21200Y-44338D01*
X21201Y-44350D01*
X21199Y-44406D01*
X21183Y-44459D01*
X21154Y-44506D01*
X21113Y-44545D01*
X21108Y-44549D01*
X21089Y-44563D01*
X21077Y-44572D01*
X21067Y-44580D01*
X21137Y-44750D01*
X21148Y-44777D01*
X21168Y-44823D01*
X21185Y-44863D01*
X21198Y-44895D01*
X21208Y-44916D01*
X21212Y-44925D01*
X21212Y-44925D01*
X21218Y-44926D01*
X21231Y-44921D01*
X21255Y-44910D01*
X21271Y-44902D01*
X21289Y-44893D01*
X21297Y-44890D01*
X21304Y-44894D01*
X21321Y-44905D01*
X21346Y-44922D01*
X21376Y-44942D01*
X21405Y-44962D01*
X21432Y-44980D01*
X21451Y-44992D01*
X21461Y-44997D01*
X21462Y-44997D01*
X21470Y-44992D01*
X21486Y-44980D01*
X21509Y-44958D01*
X21541Y-44926D01*
X21546Y-44921D01*
X21573Y-44893D01*
X21595Y-44870D01*
X21610Y-44854D01*
X21615Y-44847D01*
X21615Y-44847D01*
X21610Y-44837D01*
X21598Y-44818D01*
X21580Y-44791D01*
X21559Y-44760D01*
X21503Y-44678D01*
X21534Y-44601D01*
X21543Y-44578D01*
X21555Y-44549D01*
X21564Y-44529D01*
X21569Y-44520D01*
X21577Y-44517D01*
X21598Y-44512D01*
X21629Y-44505D01*
X21665Y-44499D01*
X21700Y-44492D01*
X21731Y-44486D01*
X21754Y-44482D01*
X21764Y-44480D01*
X21766Y-44478D01*
X21768Y-44473D01*
X21770Y-44463D01*
X21770Y-44444D01*
X21771Y-44414D01*
X21771Y-44370D01*
X21771Y-44366D01*
X21770Y-44324D01*
X21770Y-44291D01*
X21769Y-44270D01*
X21767Y-44262D01*
X21767Y-44262D01*
X21757Y-44259D01*
X21735Y-44255D01*
X21704Y-44248D01*
X21666Y-44241D01*
X21664Y-44241D01*
X21627Y-44234D01*
X21596Y-44227D01*
X21574Y-44222D01*
X21565Y-44219D01*
X21563Y-44217D01*
X21555Y-44202D01*
X21544Y-44179D01*
X21532Y-44151D01*
X21520Y-44122D01*
X21509Y-44095D01*
X21502Y-44076D01*
X21500Y-44067D01*
X21500Y-44067D01*
X21506Y-44058D01*
X21519Y-44038D01*
X21537Y-44012D01*
X21559Y-43980D01*
X21560Y-43977D01*
X21582Y-43946D01*
X21599Y-43919D01*
X21611Y-43900D01*
X21615Y-43892D01*
X21615Y-43891D01*
X21608Y-43882D01*
X21592Y-43864D01*
X21569Y-43840D01*
X21541Y-43812D01*
X21532Y-43804D01*
X21502Y-43774D01*
X21481Y-43754D01*
X21467Y-43744D01*
X21461Y-43741D01*
X21461Y-43742D01*
X21451Y-43747D01*
X21431Y-43760D01*
X21404Y-43779D01*
X21372Y-43800D01*
X21370Y-43802D01*
X21339Y-43823D01*
X21313Y-43841D01*
X21294Y-43853D01*
X21286Y-43858D01*
X21284Y-43858D01*
X21272Y-43854D01*
X21249Y-43847D01*
X21222Y-43836D01*
X21193Y-43824D01*
X21166Y-43813D01*
X21146Y-43804D01*
X21137Y-43799D01*
X21137Y-43798D01*
X21133Y-43787D01*
X21128Y-43763D01*
X21121Y-43731D01*
X21114Y-43692D01*
X21113Y-43686D01*
X21106Y-43649D01*
X21100Y-43618D01*
X21095Y-43596D01*
X21093Y-43587D01*
X21088Y-43586D01*
X21069Y-43585D01*
X21041Y-43584D01*
X21007Y-43584D01*
X20972Y-43584D01*
X20938Y-43585D01*
X20908Y-43586D01*
X20887Y-43587D01*
X20878Y-43589D01*
X20877Y-43590D01*
X20874Y-43601D01*
X20869Y-43625D01*
X20862Y-43657D01*
X20855Y-43696D01*
X20854Y-43703D01*
X20847Y-43740D01*
X20840Y-43771D01*
X20836Y-43792D01*
X20833Y-43800D01*
X20830Y-43802D01*
X20815Y-43809D01*
X20790Y-43819D01*
X20758Y-43832D01*
X20686Y-43861D01*
X20598Y-43800D01*
X20590Y-43795D01*
X20558Y-43773D01*
X20532Y-43756D01*
X20514Y-43744D01*
X20506Y-43740D01*
X20506Y-43740D01*
X20497Y-43748D01*
X20479Y-43764D01*
X20455Y-43788D01*
X20428Y-43815D01*
X20407Y-43836D01*
X20383Y-43861D01*
X20367Y-43877D01*
X20359Y-43888D01*
X20356Y-43895D01*
X20357Y-43899D01*
X20362Y-43908D01*
X20375Y-43927D01*
X20393Y-43954D01*
X20415Y-43985D01*
X20433Y-44012D01*
X20452Y-44041D01*
X20464Y-44062D01*
X20469Y-44073D01*
X20468Y-44077D01*
X20461Y-44094D01*
X20451Y-44121D01*
X20438Y-44152D01*
X20407Y-44222D01*
X20361Y-44230D01*
X20333Y-44236D01*
X20294Y-44243D01*
X20257Y-44250D01*
X20199Y-44262D01*
X20197Y-44474D01*
X20206Y-44478D01*
X20215Y-44481D01*
X20236Y-44485D01*
X20267Y-44491D01*
X20303Y-44498D01*
X20334Y-44504D01*
X20365Y-44510D01*
X20387Y-44514D01*
X20397Y-44516D01*
X20400Y-44520D01*
X20408Y-44535D01*
X20419Y-44559D01*
X20431Y-44588D01*
X20443Y-44617D01*
X20454Y-44645D01*
X20462Y-44666D01*
X20465Y-44677D01*
X20461Y-44685D01*
X20449Y-44703D01*
X20432Y-44729D01*
X20411Y-44760D01*
X20389Y-44791D01*
X20372Y-44818D01*
X20359Y-44837D01*
X20354Y-44845D01*
X20357Y-44851D01*
X20369Y-44866D01*
X20392Y-44890D01*
X20427Y-44925D01*
X20433Y-44930D01*
X20460Y-44957D01*
X20484Y-44978D01*
X20500Y-44993D01*
X20507Y-44998D01*
X20507Y-44998D01*
G37*
G36*
X21281Y-41750D02*
X21301Y-41748D01*
X21319Y-41742D01*
X21327Y-41738D01*
X21344Y-41726D01*
X21357Y-41712D01*
X21367Y-41695D01*
X21374Y-41677D01*
X21377Y-41658D01*
X21376Y-41638D01*
X21372Y-41619D01*
X21363Y-41601D01*
X21357Y-41593D01*
X21349Y-41584D01*
X21340Y-41575D01*
X21332Y-41569D01*
X21329Y-41567D01*
X21312Y-41559D01*
X21294Y-41555D01*
X21275Y-41554D01*
X21268Y-41555D01*
X21257Y-41556D01*
X21248Y-41559D01*
X21237Y-41563D01*
X21226Y-41569D01*
X21210Y-41582D01*
X21197Y-41598D01*
X21187Y-41616D01*
X21184Y-41624D01*
X21182Y-41634D01*
X21181Y-41641D01*
X21181Y-41642D01*
X21180Y-41643D01*
X21180Y-41639D01*
X21180Y-41638D01*
X21177Y-41625D01*
X21172Y-41612D01*
X21166Y-41601D01*
X21155Y-41586D01*
X21140Y-41573D01*
X21123Y-41562D01*
X21103Y-41556D01*
X21083Y-41554D01*
X21077Y-41554D01*
X21062Y-41556D01*
X21047Y-41560D01*
X21044Y-41561D01*
X21027Y-41570D01*
X21012Y-41583D01*
X21000Y-41598D01*
X20991Y-41614D01*
X20986Y-41632D01*
X20985Y-41632D01*
X20984Y-41637D01*
X20984Y-41639D01*
X20984Y-41639D01*
X20984Y-41637D01*
X20982Y-41632D01*
X20982Y-41630D01*
X20976Y-41613D01*
X20967Y-41596D01*
X20954Y-41581D01*
X20942Y-41571D01*
X20925Y-41562D01*
X20906Y-41556D01*
X20885Y-41554D01*
X20871Y-41555D01*
X20851Y-41560D01*
X20833Y-41569D01*
X20817Y-41581D01*
X20805Y-41597D01*
X20803Y-41599D01*
X20799Y-41607D01*
X20796Y-41613D01*
X20794Y-41617D01*
X20791Y-41626D01*
X20789Y-41635D01*
X20788Y-41641D01*
X20788Y-41642D01*
X20788Y-41642D01*
X20787Y-41638D01*
X20785Y-41627D01*
X20780Y-41614D01*
X20774Y-41602D01*
X20762Y-41586D01*
X20747Y-41573D01*
X20730Y-41562D01*
X20710Y-41556D01*
X20690Y-41554D01*
X20671Y-41555D01*
X20652Y-41561D01*
X20635Y-41570D01*
X20619Y-41584D01*
X20611Y-41592D01*
X20604Y-41603D01*
X20598Y-41616D01*
X20594Y-41626D01*
X20591Y-41646D01*
X20592Y-41665D01*
X20596Y-41683D01*
X20603Y-41701D01*
X20614Y-41716D01*
X20628Y-41729D01*
X20644Y-41740D01*
X20662Y-41747D01*
X20682Y-41750D01*
X20683Y-41750D01*
X20704Y-41750D01*
X20722Y-41745D01*
X20740Y-41736D01*
X20747Y-41732D01*
X20760Y-41720D01*
X20771Y-41707D01*
X20780Y-41692D01*
X20782Y-41686D01*
X20784Y-41678D01*
X20786Y-41669D01*
X20787Y-41663D01*
X20787Y-41659D01*
X20788Y-41663D01*
X20788Y-41666D01*
X20790Y-41675D01*
X20793Y-41685D01*
X20796Y-41693D01*
X20801Y-41702D01*
X20813Y-41718D01*
X20828Y-41731D01*
X20845Y-41742D01*
X20865Y-41748D01*
X20868Y-41749D01*
X20882Y-41750D01*
X20896Y-41750D01*
X20909Y-41748D01*
X20922Y-41744D01*
X20940Y-41734D01*
X20957Y-41721D01*
X20958Y-41720D01*
X20969Y-41706D01*
X20977Y-41689D01*
X20982Y-41672D01*
X20983Y-41672D01*
X20984Y-41667D01*
X20984Y-41665D01*
X20984Y-41666D01*
X20985Y-41671D01*
X20985Y-41672D01*
X20988Y-41682D01*
X20993Y-41693D01*
X20998Y-41704D01*
X21007Y-41716D01*
X21022Y-41730D01*
X21039Y-41741D01*
X21059Y-41748D01*
X21062Y-41749D01*
X21075Y-41750D01*
X21090Y-41750D01*
X21102Y-41749D01*
X21113Y-41745D01*
X21132Y-41737D01*
X21148Y-41725D01*
X21162Y-41710D01*
X21172Y-41693D01*
X21174Y-41687D01*
X21177Y-41678D01*
X21179Y-41669D01*
X21180Y-41663D01*
X21180Y-41662D01*
X21180Y-41662D01*
X21181Y-41666D01*
X21181Y-41666D01*
X21184Y-41679D01*
X21189Y-41692D01*
X21195Y-41703D01*
X21197Y-41707D01*
X21210Y-41722D01*
X21226Y-41735D01*
X21243Y-41744D01*
X21261Y-41749D01*
X21281Y-41750D01*
X21281Y-41750D01*
G37*
G36*
X20486Y-41554D02*
X20498Y-41553D01*
X20509Y-41552D01*
X20523Y-41549D01*
X20541Y-41541D01*
X20557Y-41529D01*
X20571Y-41514D01*
X20581Y-41497D01*
X20588Y-41479D01*
X20591Y-41459D01*
X20589Y-41439D01*
X20584Y-41420D01*
X20575Y-41402D01*
X20563Y-41387D01*
X20547Y-41373D01*
X20542Y-41370D01*
X20523Y-41362D01*
X20503Y-41357D01*
X20483Y-41357D01*
X20463Y-41361D01*
X20447Y-41368D01*
X20430Y-41379D01*
X20415Y-41394D01*
X20404Y-41411D01*
X20397Y-41431D01*
X20395Y-41441D01*
X20394Y-41454D01*
X20394Y-41466D01*
X20396Y-41477D01*
X20397Y-41481D01*
X20405Y-41501D01*
X20416Y-41518D01*
X20431Y-41532D01*
X20449Y-41544D01*
X20458Y-41547D01*
X20469Y-41551D01*
X20479Y-41553D01*
X20486Y-41554D01*
X20486Y-41554D01*
G37*
G36*
X21478Y-41554D02*
X21498Y-41551D01*
X21518Y-41544D01*
X21536Y-41533D01*
X21540Y-41530D01*
X21553Y-41516D01*
X21564Y-41499D01*
X21571Y-41479D01*
X21573Y-41469D01*
X21574Y-41457D01*
X21574Y-41444D01*
X21572Y-41434D01*
X21571Y-41429D01*
X21563Y-41409D01*
X21552Y-41393D01*
X21537Y-41378D01*
X21520Y-41368D01*
X21502Y-41360D01*
X21481Y-41357D01*
X21474Y-41357D01*
X21454Y-41359D01*
X21435Y-41365D01*
X21419Y-41375D01*
X21404Y-41388D01*
X21392Y-41403D01*
X21384Y-41420D01*
X21379Y-41439D01*
X21378Y-41460D01*
X21379Y-41472D01*
X21381Y-41482D01*
X21385Y-41494D01*
X21393Y-41509D01*
X21406Y-41524D01*
X21421Y-41537D01*
X21439Y-41547D01*
X21458Y-41552D01*
X21478Y-41554D01*
X21478Y-41554D01*
G37*
G36*
X20290Y-41356D02*
X20304Y-41356D01*
X20316Y-41355D01*
X20330Y-41351D01*
X20348Y-41341D01*
X20365Y-41328D01*
X20375Y-41316D01*
X20385Y-41299D01*
X20392Y-41279D01*
X20393Y-41272D01*
X20394Y-41260D01*
X20393Y-41248D01*
X20392Y-41238D01*
X20390Y-41232D01*
X20383Y-41213D01*
X20371Y-41196D01*
X20357Y-41181D01*
X20339Y-41170D01*
X20332Y-41167D01*
X20320Y-41163D01*
X20307Y-41161D01*
X20292Y-41161D01*
X20283Y-41161D01*
X20272Y-41163D01*
X20262Y-41165D01*
X20252Y-41170D01*
X20245Y-41174D01*
X20229Y-41186D01*
X20215Y-41201D01*
X20205Y-41219D01*
X20199Y-41239D01*
X20198Y-41244D01*
X20197Y-41255D01*
X20197Y-41267D01*
X20199Y-41278D01*
X20200Y-41285D01*
X20208Y-41304D01*
X20219Y-41321D01*
X20234Y-41335D01*
X20251Y-41346D01*
X20271Y-41354D01*
X20277Y-41355D01*
X20290Y-41356D01*
X20290Y-41356D01*
G37*
G36*
X21080Y-41357D02*
X21099Y-41355D01*
X21118Y-41350D01*
X21129Y-41345D01*
X21146Y-41333D01*
X21160Y-41319D01*
X21170Y-41301D01*
X21177Y-41282D01*
X21178Y-41278D01*
X21181Y-41262D01*
X21180Y-41247D01*
X21176Y-41230D01*
X21168Y-41211D01*
X21157Y-41194D01*
X21142Y-41180D01*
X21124Y-41170D01*
X21104Y-41162D01*
X21092Y-41159D01*
X21098Y-41159D01*
X21100Y-41158D01*
X21114Y-41155D01*
X21129Y-41148D01*
X21142Y-41139D01*
X21145Y-41137D01*
X21159Y-41123D01*
X21170Y-41106D01*
X21177Y-41088D01*
X21180Y-41069D01*
X21180Y-41050D01*
X21175Y-41031D01*
X21167Y-41012D01*
X21166Y-41012D01*
X21154Y-40995D01*
X21139Y-40982D01*
X21123Y-40973D01*
X21105Y-40967D01*
X21086Y-40964D01*
X21067Y-40965D01*
X21048Y-40970D01*
X21030Y-40979D01*
X21014Y-40991D01*
X21006Y-41000D01*
X20996Y-41015D01*
X20989Y-41030D01*
X20985Y-41045D01*
X20984Y-41048D01*
X20984Y-41050D01*
X20984Y-41049D01*
X20983Y-41045D01*
X20980Y-41031D01*
X20974Y-41017D01*
X20965Y-41004D01*
X20960Y-40998D01*
X20946Y-40984D01*
X20928Y-40974D01*
X20910Y-40967D01*
X20890Y-40964D01*
X20870Y-40965D01*
X20857Y-40968D01*
X20838Y-40976D01*
X20822Y-40988D01*
X20808Y-41002D01*
X20797Y-41019D01*
X20790Y-41039D01*
X20789Y-41049D01*
X20788Y-41068D01*
X20791Y-41088D01*
X20798Y-41106D01*
X20809Y-41123D01*
X20824Y-41137D01*
X20841Y-41149D01*
X20849Y-41152D01*
X20858Y-41156D01*
X20866Y-41158D01*
X20873Y-41159D01*
X20874Y-41159D01*
X20873Y-41160D01*
X20869Y-41161D01*
X20859Y-41164D01*
X20846Y-41168D01*
X20835Y-41174D01*
X20829Y-41178D01*
X20816Y-41190D01*
X20804Y-41204D01*
X20796Y-41219D01*
X20790Y-41235D01*
X20788Y-41253D01*
X20788Y-41270D01*
X20789Y-41273D01*
X20794Y-41294D01*
X20803Y-41312D01*
X20817Y-41328D01*
X20828Y-41338D01*
X20845Y-41348D01*
X20865Y-41355D01*
X20872Y-41356D01*
X20883Y-41356D01*
X20894Y-41356D01*
X20905Y-41355D01*
X20913Y-41353D01*
X20919Y-41351D01*
X20938Y-41342D01*
X20955Y-41329D01*
X20968Y-41313D01*
X20973Y-41305D01*
X20979Y-41292D01*
X20982Y-41279D01*
X20983Y-41278D01*
X20984Y-41273D01*
X20984Y-41271D01*
X20984Y-41271D01*
X20984Y-41245D01*
X20984Y-41245D01*
X20984Y-41243D01*
X20982Y-41238D01*
X20982Y-41237D01*
X20976Y-41219D01*
X20967Y-41203D01*
X20954Y-41188D01*
X20939Y-41176D01*
X20923Y-41167D01*
X20922Y-41167D01*
X20913Y-41164D01*
X20905Y-41162D01*
X20896Y-41160D01*
X20904Y-41158D01*
X20916Y-41155D01*
X20934Y-41148D01*
X20950Y-41136D01*
X20963Y-41122D01*
X20974Y-41106D01*
X20978Y-41098D01*
X20981Y-41088D01*
X20983Y-41079D01*
X20984Y-41076D01*
X20984Y-41074D01*
X20984Y-41075D01*
X20985Y-41079D01*
X20987Y-41087D01*
X20990Y-41097D01*
X20994Y-41106D01*
X21000Y-41117D01*
X21013Y-41132D01*
X21028Y-41144D01*
X21046Y-41153D01*
X21064Y-41158D01*
X21073Y-41160D01*
X21064Y-41162D01*
X21062Y-41162D01*
X21054Y-41164D01*
X21045Y-41167D01*
X21044Y-41168D01*
X21027Y-41177D01*
X21012Y-41189D01*
X21000Y-41204D01*
X20991Y-41220D01*
X20986Y-41238D01*
X20985Y-41239D01*
X20984Y-41243D01*
X20984Y-41245D01*
X20984Y-41271D01*
X20984Y-41271D01*
X20984Y-41274D01*
X20986Y-41279D01*
X20989Y-41292D01*
X20997Y-41309D01*
X21009Y-41325D01*
X21024Y-41338D01*
X21041Y-41348D01*
X21041Y-41348D01*
X21060Y-41354D01*
X21080Y-41357D01*
X21080Y-41357D01*
G37*
G36*
X21665Y-41356D02*
X21681Y-41356D01*
X21696Y-41354D01*
X21705Y-41351D01*
X21724Y-41343D01*
X21740Y-41330D01*
X21753Y-41316D01*
X21763Y-41298D01*
X21769Y-41279D01*
X21771Y-41258D01*
X21771Y-41250D01*
X21767Y-41230D01*
X21759Y-41211D01*
X21747Y-41193D01*
X21743Y-41190D01*
X21729Y-41178D01*
X21713Y-41169D01*
X21696Y-41163D01*
X21695Y-41162D01*
X21680Y-41160D01*
X21664Y-41160D01*
X21650Y-41162D01*
X21644Y-41164D01*
X21626Y-41172D01*
X21609Y-41183D01*
X21596Y-41197D01*
X21585Y-41213D01*
X21578Y-41231D01*
X21574Y-41250D01*
X21575Y-41270D01*
X21579Y-41290D01*
X21586Y-41305D01*
X21597Y-41321D01*
X21612Y-41336D01*
X21629Y-41346D01*
X21648Y-41354D01*
X21650Y-41354D01*
X21665Y-41356D01*
X21665Y-41356D01*
G37*
G36*
X20692Y-40767D02*
X20712Y-40765D01*
X20731Y-40758D01*
X20740Y-40753D01*
X20748Y-40747D01*
X20758Y-40739D01*
X20768Y-40728D01*
X20778Y-40711D01*
X20785Y-40692D01*
X20786Y-40687D01*
X20787Y-40674D01*
X20787Y-40660D01*
X20786Y-40648D01*
X20780Y-40632D01*
X20771Y-40614D01*
X20759Y-40600D01*
X20757Y-40597D01*
X20748Y-40590D01*
X20738Y-40583D01*
X20728Y-40578D01*
X20724Y-40577D01*
X20716Y-40574D01*
X20708Y-40572D01*
X20702Y-40571D01*
X20699Y-40571D01*
X20703Y-40570D01*
X20707Y-40569D01*
X20714Y-40567D01*
X20721Y-40565D01*
X20736Y-40558D01*
X20750Y-40549D01*
X20762Y-40539D01*
X20764Y-40536D01*
X20775Y-40519D01*
X20783Y-40501D01*
X20787Y-40481D01*
X20787Y-40461D01*
X20787Y-40457D01*
X20781Y-40437D01*
X20772Y-40419D01*
X20758Y-40402D01*
X20746Y-40392D01*
X20729Y-40382D01*
X20710Y-40375D01*
X20706Y-40375D01*
X20693Y-40374D01*
X20679Y-40374D01*
X20667Y-40376D01*
X20655Y-40379D01*
X20637Y-40388D01*
X20622Y-40400D01*
X20609Y-40415D01*
X20599Y-40432D01*
X20593Y-40451D01*
X20592Y-40453D01*
X20591Y-40458D01*
X20590Y-40460D01*
X20590Y-40458D01*
X20589Y-40454D01*
X20587Y-40446D01*
X20584Y-40437D01*
X20581Y-40429D01*
X20578Y-40423D01*
X20566Y-40406D01*
X20551Y-40392D01*
X20533Y-40382D01*
X20514Y-40376D01*
X20493Y-40374D01*
X20477Y-40375D01*
X20458Y-40379D01*
X20441Y-40388D01*
X20431Y-40395D01*
X20416Y-40409D01*
X20405Y-40426D01*
X20398Y-40444D01*
X20394Y-40463D01*
X20394Y-40483D01*
X20399Y-40502D01*
X20407Y-40521D01*
X20419Y-40537D01*
X20434Y-40551D01*
X20451Y-40561D01*
X20471Y-40568D01*
X20483Y-40571D01*
X20476Y-40572D01*
X20472Y-40572D01*
X20456Y-40577D01*
X20441Y-40585D01*
X20426Y-40596D01*
X20415Y-40608D01*
X20408Y-40618D01*
X20401Y-40632D01*
X20397Y-40645D01*
X20395Y-40655D01*
X20394Y-40667D01*
X20394Y-40680D01*
X20396Y-40690D01*
X20399Y-40702D01*
X20409Y-40721D01*
X20421Y-40737D01*
X20437Y-40750D01*
X20455Y-40760D01*
X20476Y-40766D01*
X20481Y-40767D01*
X20493Y-40767D01*
X20506Y-40766D01*
X20517Y-40764D01*
X20525Y-40762D01*
X20543Y-40753D01*
X20560Y-40741D01*
X20573Y-40726D01*
X20583Y-40708D01*
X20589Y-40688D01*
X20589Y-40687D01*
X20590Y-40682D01*
X20591Y-40683D01*
X20591Y-40656D01*
X20590Y-40655D01*
X20589Y-40651D01*
X20589Y-40650D01*
X20586Y-40637D01*
X20579Y-40623D01*
X20571Y-40610D01*
X20565Y-40603D01*
X20550Y-40589D01*
X20532Y-40579D01*
X20512Y-40572D01*
X20503Y-40570D01*
X20509Y-40569D01*
X20515Y-40568D01*
X20522Y-40566D01*
X20526Y-40565D01*
X20544Y-40556D01*
X20559Y-40544D01*
X20573Y-40529D01*
X20582Y-40512D01*
X20589Y-40493D01*
X20590Y-40488D01*
X20591Y-40485D01*
X20592Y-40487D01*
X20593Y-40493D01*
X20593Y-40493D01*
X20596Y-40504D01*
X20601Y-40516D01*
X20607Y-40526D01*
X20612Y-40533D01*
X20621Y-40542D01*
X20631Y-40551D01*
X20640Y-40557D01*
X20641Y-40558D01*
X20656Y-40564D01*
X20672Y-40569D01*
X20679Y-40570D01*
X20671Y-40572D01*
X20654Y-40577D01*
X20636Y-40586D01*
X20620Y-40598D01*
X20608Y-40613D01*
X20605Y-40618D01*
X20600Y-40628D01*
X20596Y-40638D01*
X20593Y-40647D01*
X20592Y-40653D01*
X20592Y-40653D01*
X20591Y-40656D01*
X20591Y-40683D01*
X20591Y-40683D01*
X20592Y-40687D01*
X20594Y-40693D01*
X20595Y-40699D01*
X20599Y-40709D01*
X20609Y-40726D01*
X20622Y-40741D01*
X20637Y-40752D01*
X20655Y-40761D01*
X20673Y-40766D01*
X20692Y-40767D01*
X20692Y-40767D01*
G37*
G36*
X21284Y-40767D02*
X21303Y-40764D01*
X21322Y-40757D01*
X21338Y-40747D01*
X21353Y-40734D01*
X21364Y-40718D01*
X21373Y-40699D01*
X21374Y-40693D01*
X21376Y-40687D01*
X21376Y-40686D01*
X21377Y-40682D01*
X21377Y-40682D01*
X21377Y-40655D01*
X21376Y-40652D01*
X21374Y-40645D01*
X21371Y-40634D01*
X21362Y-40616D01*
X21350Y-40601D01*
X21335Y-40588D01*
X21318Y-40578D01*
X21299Y-40572D01*
X21289Y-40570D01*
X21296Y-40569D01*
X21297Y-40569D01*
X21313Y-40564D01*
X21328Y-40557D01*
X21334Y-40553D01*
X21344Y-40545D01*
X21354Y-40536D01*
X21361Y-40526D01*
X21366Y-40517D01*
X21372Y-40505D01*
X21375Y-40493D01*
X21376Y-40488D01*
X21377Y-40485D01*
X21378Y-40487D01*
X21379Y-40493D01*
X21383Y-40506D01*
X21392Y-40524D01*
X21405Y-40540D01*
X21420Y-40553D01*
X21438Y-40563D01*
X21459Y-40569D01*
X21465Y-40570D01*
X21456Y-40572D01*
X21447Y-40575D01*
X21428Y-40583D01*
X21411Y-40595D01*
X21397Y-40610D01*
X21393Y-40616D01*
X21388Y-40625D01*
X21383Y-40635D01*
X21381Y-40642D01*
X21379Y-40650D01*
X21379Y-40650D01*
X21378Y-40654D01*
X21377Y-40655D01*
X21377Y-40682D01*
X21378Y-40683D01*
X21379Y-40688D01*
X21381Y-40695D01*
X21386Y-40710D01*
X21394Y-40724D01*
X21400Y-40731D01*
X21414Y-40746D01*
X21432Y-40757D01*
X21452Y-40764D01*
X21460Y-40766D01*
X21474Y-40767D01*
X21488Y-40766D01*
X21500Y-40764D01*
X21501Y-40764D01*
X21521Y-40756D01*
X21538Y-40745D01*
X21553Y-40730D01*
X21564Y-40713D01*
X21571Y-40693D01*
X21573Y-40684D01*
X21574Y-40670D01*
X21573Y-40657D01*
X21571Y-40645D01*
X21568Y-40634D01*
X21561Y-40620D01*
X21553Y-40608D01*
X21544Y-40598D01*
X21532Y-40588D01*
X21519Y-40580D01*
X21515Y-40578D01*
X21505Y-40575D01*
X21496Y-40572D01*
X21489Y-40571D01*
X21488Y-40571D01*
X21491Y-40570D01*
X21496Y-40568D01*
X21508Y-40565D01*
X21521Y-40559D01*
X21531Y-40553D01*
X21534Y-40552D01*
X21546Y-40540D01*
X21558Y-40526D01*
X21566Y-40512D01*
X21569Y-40504D01*
X21573Y-40485D01*
X21574Y-40464D01*
X21570Y-40445D01*
X21569Y-40440D01*
X21561Y-40422D01*
X21549Y-40406D01*
X21534Y-40392D01*
X21516Y-40382D01*
X21497Y-40375D01*
X21494Y-40375D01*
X21480Y-40374D01*
X21466Y-40374D01*
X21453Y-40376D01*
X21450Y-40377D01*
X21430Y-40384D01*
X21413Y-40396D01*
X21399Y-40411D01*
X21387Y-40429D01*
X21385Y-40434D01*
X21382Y-40443D01*
X21379Y-40452D01*
X21378Y-40458D01*
X21378Y-40459D01*
X21378Y-40460D01*
X21376Y-40457D01*
X21375Y-40452D01*
X21372Y-40438D01*
X21363Y-40421D01*
X21351Y-40405D01*
X21337Y-40392D01*
X21319Y-40382D01*
X21319Y-40382D01*
X21301Y-40376D01*
X21281Y-40374D01*
X21261Y-40375D01*
X21243Y-40380D01*
X21232Y-40385D01*
X21215Y-40397D01*
X21201Y-40412D01*
X21190Y-40429D01*
X21183Y-40448D01*
X21182Y-40452D01*
X21180Y-40468D01*
X21181Y-40483D01*
X21185Y-40501D01*
X21193Y-40520D01*
X21205Y-40537D01*
X21220Y-40551D01*
X21238Y-40561D01*
X21258Y-40568D01*
X21262Y-40569D01*
X21266Y-40571D01*
X21266Y-40571D01*
X21260Y-40572D01*
X21248Y-40575D01*
X21236Y-40580D01*
X21225Y-40587D01*
X21214Y-40595D01*
X21200Y-40610D01*
X21189Y-40628D01*
X21188Y-40631D01*
X21182Y-40650D01*
X21180Y-40670D01*
X21183Y-40691D01*
X21189Y-40710D01*
X21194Y-40719D01*
X21200Y-40728D01*
X21208Y-40737D01*
X21209Y-40738D01*
X21225Y-40751D01*
X21242Y-40760D01*
X21262Y-40766D01*
X21264Y-40766D01*
X21284Y-40767D01*
X21284Y-40767D01*
G37*
G54D12*
X40391Y-43424D02*
X40136Y-43424D01*
X40136Y-43424D02*
X40136Y-42873D01*
X40391Y-42873D02*
X40136Y-42873D01*
X40391Y-43424D02*
X40391Y-42873D01*
X40971Y-43424D02*
X40715Y-43424D01*
X40715Y-43424D02*
X40715Y-42873D01*
X40971Y-42873D02*
X40715Y-42873D01*
X40971Y-43424D02*
X40971Y-42873D01*
X40629Y-43345D02*
X40473Y-43345D01*
X40473Y-43345D02*
X40473Y-42953D01*
X40629Y-42953D02*
X40473Y-42953D01*
X40629Y-43345D02*
X40629Y-42953D01*
X40712Y-42899D02*
X40390Y-42899D01*
X40712Y-43399D02*
X40390Y-43399D01*
X41327Y-42762D02*
X39775Y-42762D01*
X39775Y-42762D02*
X39775Y-43536D01*
X39775Y-43536D02*
X41327Y-43536D01*
X41327Y-43536D02*
X41327Y-42762D01*
X39018Y-42441D02*
X39273Y-42441D01*
X39273Y-42441D02*
X39273Y-42992D01*
X39018Y-42992D02*
X39273Y-42992D01*
X39018Y-42441D02*
X39018Y-42992D01*
X38438Y-42441D02*
X38694Y-42441D01*
X38694Y-42441D02*
X38694Y-42992D01*
X38438Y-42992D02*
X38694Y-42992D01*
X38438Y-42441D02*
X38438Y-42992D01*
X38780Y-42520D02*
X38936Y-42520D01*
X38936Y-42520D02*
X38936Y-42912D01*
X38780Y-42912D02*
X38936Y-42912D01*
X38780Y-42520D02*
X38780Y-42912D01*
X38697Y-42966D02*
X39019Y-42966D01*
X38697Y-42466D02*
X39019Y-42466D01*
X38082Y-43103D02*
X39634Y-43103D01*
X39634Y-43103D02*
X39634Y-42329D01*
X39634Y-42329D02*
X38082Y-42329D01*
X38082Y-42329D02*
X38082Y-43103D01*
X40391Y-42558D02*
X40136Y-42558D01*
X40136Y-42558D02*
X40136Y-42007D01*
X40391Y-42007D02*
X40136Y-42007D01*
X40391Y-42558D02*
X40391Y-42007D01*
X40971Y-42558D02*
X40715Y-42558D01*
X40715Y-42558D02*
X40715Y-42007D01*
X40971Y-42007D02*
X40715Y-42007D01*
X40971Y-42558D02*
X40971Y-42007D01*
X40629Y-42479D02*
X40473Y-42479D01*
X40473Y-42479D02*
X40473Y-42087D01*
X40629Y-42087D02*
X40473Y-42087D01*
X40629Y-42479D02*
X40629Y-42087D01*
X40712Y-42033D02*
X40390Y-42033D01*
X40712Y-42533D02*
X40390Y-42533D01*
X41327Y-41896D02*
X39775Y-41896D01*
X39775Y-41896D02*
X39775Y-42670D01*
X39775Y-42670D02*
X41327Y-42670D01*
X41327Y-42670D02*
X41327Y-41896D01*
G54D14*
X43021Y-42913D02*
X43021Y-42519D01*
X43513Y-42913D02*
X43513Y-42519D01*
X43513Y-42519D02*
X43513Y-42322D01*
X43021Y-42322D02*
X43021Y-42519D01*
X43513Y-43110D02*
X43513Y-42913D01*
X43021Y-43110D02*
X43021Y-42913D01*
X43513Y-42913D02*
X43021Y-42913D01*
X43021Y-42519D02*
X43513Y-42519D01*
X43513Y-42322D02*
X43405Y-42322D01*
X43129Y-42322D02*
X43021Y-42322D01*
X43021Y-43110D02*
X43129Y-43110D01*
X43513Y-43110D02*
X43405Y-43110D01*
X43306Y-42677D02*
X43228Y-42677D01*
X43228Y-42677D02*
X43228Y-42599D01*
X43306Y-42599D02*
X43228Y-42599D01*
X43306Y-42677D02*
X43306Y-42599D01*
X43404Y-42323D02*
G75*
G02X43130Y-42323I-137J0D01*
G74*
G01*
X43130Y-43109D02*
G75*
G02X43404Y-43109I137J0D01*
G74*
G01*
X42322Y-42529D02*
X41929Y-42529D01*
X42322Y-42037D02*
X41929Y-42037D01*
X41929Y-42037D02*
X41732Y-42037D01*
X41732Y-42529D02*
X41929Y-42529D01*
X42519Y-42037D02*
X42322Y-42037D01*
X42519Y-42529D02*
X42322Y-42529D01*
X42322Y-42037D02*
X42322Y-42529D01*
X41929Y-42529D02*
X41929Y-42037D01*
X41732Y-42037D02*
X41732Y-42145D01*
X41732Y-42421D02*
X41732Y-42529D01*
X42519Y-42529D02*
X42519Y-42421D01*
X42519Y-42037D02*
X42519Y-42145D01*
X42086Y-42244D02*
X42086Y-42322D01*
X42086Y-42322D02*
X42008Y-42322D01*
X42008Y-42244D02*
X42008Y-42322D01*
X42086Y-42244D02*
X42008Y-42244D01*
X41732Y-42146D02*
G75*
G02X41732Y-42420I0J-137D01*
G74*
G01*
X42518Y-42420D02*
G75*
G02X42518Y-42146I0J137D01*
G74*
G01*
X42322Y-43395D02*
X41929Y-43395D01*
X42322Y-42903D02*
X41929Y-42903D01*
X41929Y-42903D02*
X41732Y-42903D01*
X41732Y-43395D02*
X41929Y-43395D01*
X42519Y-42903D02*
X42322Y-42903D01*
X42519Y-43395D02*
X42322Y-43395D01*
X42322Y-42903D02*
X42322Y-43395D01*
X41929Y-43395D02*
X41929Y-42903D01*
X41732Y-42903D02*
X41732Y-43011D01*
X41732Y-43287D02*
X41732Y-43395D01*
X42519Y-43395D02*
X42519Y-43287D01*
X42519Y-42903D02*
X42519Y-43011D01*
X42086Y-43110D02*
X42086Y-43188D01*
X42086Y-43188D02*
X42008Y-43188D01*
X42008Y-43110D02*
X42008Y-43188D01*
X42086Y-43110D02*
X42008Y-43110D01*
X41732Y-43012D02*
G75*
G02X41732Y-43286I0J-137D01*
G74*
G01*
X42518Y-43286D02*
G75*
G02X42518Y-43012I0J137D01*
G74*
G01*
%LPC*%
G54D15*
X12297Y-42216D03*
G54D16*
X11797Y-42216D03*
X12297Y-42716D03*
X11797Y-42716D03*
X12297Y-43216D03*
X11797Y-43216D03*
G54D17*
X40925Y-43149D03*
X40177Y-43149D03*
X38484Y-42716D03*
X39232Y-42716D03*
X40925Y-42283D03*
X40177Y-42283D03*
G54D18*
X43267Y-43129D03*
X43267Y-42303D03*
G54D19*
X42538Y-42283D03*
X41712Y-42283D03*
X42538Y-43149D03*
X41712Y-43149D03*
G54D20*
X13149Y-41851D03*
X13149Y-43583D03*
M02*
